<?xml version="1.0" encoding="utf-8"?>
<!-- Generator: Adobe Illustrator 22.1.0, SVG Export Plug-In . SVG Version: 6.00 Build 0)  -->
<svg version="1.1" id="Layer_1" xmlns="http://www.w3.org/2000/svg" xmlns:xlink="http://www.w3.org/1999/xlink" x="0px" y="0px"
	 viewBox="0 0 2800 1800" style="enable-background:new 0 0 2800 1800;" xml:space="preserve">
<style type="text/css">
	.st0{display:none;fill:#C7EAFA;}
	.st1{clip-path:url(#SVGID_2_);fill:#B7D7F2;}
	.st2{clip-path:url(#SVGID_2_);fill:#95BFD8;}
	.st3{clip-path:url(#SVGID_2_);}
	.st4{fill:#9AC6E4;}
	.st5{fill:#E4F5FD;}
	.st6{fill:#FFFFFF;}
	.st7{fill:#F27792;}
	.st8{display:none;}
	.st9{display:inline;}
	.st10{fill:#B7D7F2;}
	.st11{clip-path:url(#SVGID_2_);fill:#9AC6E4;}
	.st12{fill:#6CC394;}
	.st13{fill:#52AF7B;}
	.st14{fill:#72AECC;}
	.st15{fill:#4896B5;}
	.st16{fill:#95BFD8;}
	.st17{fill:#B1DCC1;}
	.st18{fill:#C7D5DE;}
	.st19{fill:#D6DFE8;}
	.st20{fill:#4D3656;}
	.st21{fill:#E8A572;}
	.st22{fill:#FCC687;}
	.st23{fill:#444B59;}
	.st24{fill:#5B6475;}
	.st25{fill:#F29A7F;}
	.st26{fill:#6C7687;}
	.st27{fill:#6D5E76;}
	.st28{fill:#FBDE8E;}
	.st29{opacity:0.44;fill:#FFFFFF;}
	.st30{clip-path:url(#SVGID_2_);fill:#F27792;}
	.st31{fill:#D74C6B;}
	.st32{display:inline;fill:#6D5E76;}
	.st33{fill:#C7EAFA;}
	.st34{fill:#5D4E68;}
</style>
<rect class="st0" width="2800" height="1800"/>
<g>
	<defs>
		<rect id="SVGID_1_" x="138.5" width="2517.6" height="1800"/>
	</defs>
	<clipPath id="SVGID_2_">
		<use xlink:href="#SVGID_1_"  style="overflow:visible;"/>
	</clipPath>
	<ellipse class="st1" cx="1397" cy="901.3" rx="921.6" ry="850.3"/>
	<ellipse class="st2" cx="1397" cy="1665.8" rx="1231.5" ry="102"/>
	<g class="st3">
		<path class="st4" d="M980.9,198.6c-0.8,0-1.7-0.1-2.5-0.2c-0.8-0.2-1.6-0.4-2.4-0.7c-0.8-0.3-1.5-0.7-2.2-1.1
			c-0.7-0.4-1.4-0.9-2-1.5c-0.6-0.6-1.1-1.2-1.6-1.8c-0.5-0.6-0.9-1.3-1.2-2.1c-0.3-0.7-0.6-1.5-0.7-2.2c-0.2-0.8-0.3-1.5-0.3-2.3
			c0-0.8,0.1-1.6,0.3-2.3c0.2-0.8,0.4-1.5,0.7-2.2c0.3-0.7,0.7-1.4,1.2-2c0.5-0.7,1-1.3,1.6-1.8c0.6-0.6,1.2-1,2-1.5
			c0.7-0.4,1.4-0.8,2.2-1.1c0.8-0.3,1.6-0.5,2.4-0.7c1.7-0.3,3.4-0.3,5,0c0.8,0.1,1.6,0.4,2.4,0.7c0.8,0.3,1.5,0.7,2.2,1.1
			c0.7,0.4,1.4,0.9,2,1.5c0.6,0.5,1.1,1.1,1.6,1.8c0.5,0.6,0.9,1.3,1.2,2c0.3,0.7,0.6,1.5,0.7,2.2c0.2,0.8,0.2,1.6,0.2,2.3
			c0,0.8-0.1,1.6-0.2,2.3c-0.2,0.8-0.4,1.5-0.7,2.2c-0.3,0.7-0.7,1.4-1.2,2.1c-0.5,0.6-1,1.3-1.6,1.8c-0.6,0.5-1.3,1-2,1.5
			c-0.7,0.4-1.4,0.8-2.2,1.1c-0.8,0.3-1.6,0.5-2.4,0.7C982.6,198.6,981.8,198.6,980.9,198.6z"/>
		<path class="st4" d="M968.1,186.8c0-6.6,5.8-11.9,12.9-11.9l0,0c7.1,0,12.9,5.3,12.9,11.9l0,0c0,6.6-5.8,11.9-12.9,11.9l0,0
			C973.8,198.6,968.1,193.3,968.1,186.8z"/>
		<path class="st4" d="M1876.1,186.8c0-6.6,5.8-11.9,12.9-11.9l0,0c7.1,0,12.9,5.3,12.9,11.9l0,0c0,6.6-5.8,11.9-12.9,11.9l0,0
			C1881.9,198.6,1876.1,193.3,1876.1,186.8z M1822.7,186.8c0-6.6,5.8-11.9,12.9-11.9l0,0c7.1,0,12.9,5.3,12.9,11.9l0,0
			c0,6.6-5.8,11.9-12.9,11.9l0,0C1828.5,198.6,1822.7,193.3,1822.7,186.8z M1769.3,186.8c0-6.6,5.8-11.9,12.9-11.9l0,0
			c7.1,0,12.9,5.3,12.9,11.9l0,0c0,6.6-5.8,11.9-12.9,11.9l0,0C1775.1,198.6,1769.3,193.3,1769.3,186.8z M1715.9,186.8
			c0-6.6,5.8-11.9,12.9-11.9l0,0c7.1,0,12.9,5.3,12.9,11.9l0,0c0,6.6-5.8,11.9-12.9,11.9l0,0
			C1721.6,198.6,1715.9,193.3,1715.9,186.8z M1662.5,186.8c0-6.6,5.8-11.9,12.9-11.9l0,0c7.1,0,12.9,5.3,12.9,11.9l0,0
			c0,6.6-5.8,11.9-12.9,11.9l0,0C1668.2,198.6,1662.5,193.3,1662.5,186.8z M1609.1,186.8c0-6.6,5.8-11.9,12.9-11.9l0,0
			c7.1,0,12.9,5.3,12.9,11.9l0,0c0,6.6-5.8,11.9-12.9,11.9l0,0C1614.8,198.6,1609.1,193.3,1609.1,186.8z M1555.6,186.8
			c0-6.6,5.8-11.9,12.9-11.9l0,0c7.1,0,12.9,5.3,12.9,11.9l0,0c0,6.6-5.8,11.9-12.9,11.9l0,0
			C1561.4,198.6,1555.6,193.3,1555.6,186.8z M1502.2,186.8c0-6.6,5.8-11.9,12.9-11.9l0,0c7.1,0,12.9,5.3,12.9,11.9l0,0
			c0,6.6-5.8,11.9-12.9,11.9l0,0C1508,198.6,1502.2,193.3,1502.2,186.8z M1448.8,186.8c0-6.6,5.8-11.9,12.9-11.9l0,0
			c7.1,0,12.9,5.3,12.9,11.9l0,0c0,6.6-5.8,11.9-12.9,11.9l0,0C1454.6,198.6,1448.8,193.3,1448.8,186.8z M1395.4,186.8
			c0-6.6,5.8-11.9,12.9-11.9l0,0c7.1,0,12.9,5.3,12.9,11.9l0,0c0,6.6-5.8,11.9-12.9,11.9l0,0
			C1401.2,198.6,1395.4,193.3,1395.4,186.8z M1342,186.8c0-6.6,5.8-11.9,12.9-11.9l0,0c7.1,0,12.9,5.3,12.9,11.9l0,0
			c0,6.6-5.8,11.9-12.9,11.9l0,0C1347.7,198.6,1342,193.3,1342,186.8z M1288.6,186.8c0-6.6,5.7-11.9,12.9-11.9l0,0
			c7.1,0,12.9,5.3,12.9,11.9l0,0c0,6.6-5.7,11.9-12.9,11.9l0,0C1294.3,198.6,1288.6,193.3,1288.6,186.8z M1235.1,186.8
			c0-6.6,5.8-11.9,12.9-11.9l0,0c7.1,0,12.9,5.3,12.9,11.9l0,0c0,6.6-5.8,11.9-12.9,11.9l0,0
			C1240.9,198.6,1235.1,193.3,1235.1,186.8z M1181.7,186.8c0-6.6,5.8-11.9,12.9-11.9l0,0c7.1,0,12.9,5.3,12.9,11.9l0,0
			c0,6.6-5.8,11.9-12.9,11.9l0,0C1187.5,198.6,1181.7,193.3,1181.7,186.8z M1128.3,186.8c0-6.6,5.8-11.9,12.9-11.9l0,0
			c7.1,0,12.9,5.3,12.9,11.9l0,0c0,6.6-5.8,11.9-12.9,11.9l0,0C1134.1,198.6,1128.3,193.3,1128.3,186.8z M1074.9,186.8
			c0-6.6,5.8-11.9,12.9-11.9l0,0c7.1,0,12.9,5.3,12.9,11.9l0,0c0,6.6-5.8,11.9-12.9,11.9l0,0
			C1080.7,198.6,1074.9,193.3,1074.9,186.8z M1021.5,186.8c0-6.6,5.8-11.9,12.9-11.9l0,0c7.1,0,12.9,5.3,12.9,11.9l0,0
			c0,6.6-5.8,11.9-12.9,11.9l0,0C1027.2,198.6,1021.5,193.3,1021.5,186.8z"/>
		<path class="st4" d="M1942.4,198.6c-0.8,0-1.7-0.1-2.5-0.2c-0.8-0.1-1.6-0.4-2.4-0.7c-0.8-0.3-1.5-0.7-2.2-1.1
			c-0.7-0.4-1.4-0.9-1.9-1.5c-0.6-0.5-1.1-1.1-1.6-1.8c-0.5-0.6-0.9-1.3-1.2-2.1c-0.3-0.7-0.6-1.5-0.7-2.2c-0.2-0.8-0.3-1.5-0.3-2.3
			c0-0.8,0.1-1.6,0.3-2.3c0.2-0.8,0.4-1.5,0.7-2.2c0.3-0.7,0.7-1.4,1.2-2.1c0.5-0.6,1-1.3,1.6-1.8c0.6-0.6,1.2-1,1.9-1.5
			c0.7-0.4,1.4-0.8,2.2-1.1c0.8-0.3,1.6-0.5,2.4-0.7c1.7-0.3,3.4-0.3,5,0c0.8,0.1,1.6,0.4,2.4,0.7c0.8,0.3,1.5,0.7,2.2,1.1
			c0.7,0.4,1.4,0.9,2,1.5c0.6,0.5,1.1,1.1,1.6,1.8c0.5,0.6,0.9,1.3,1.2,2.1c0.3,0.7,0.6,1.5,0.7,2.2c0.2,0.8,0.3,1.5,0.3,2.3
			c0,0.8-0.1,1.6-0.3,2.3c-0.2,0.8-0.4,1.5-0.7,2.2c-0.3,0.7-0.7,1.4-1.2,2.1c-0.5,0.6-1,1.3-1.6,1.8c-0.6,0.6-1.3,1.1-2,1.5
			c-0.7,0.4-1.4,0.8-2.2,1.1c-0.8,0.3-1.6,0.5-2.4,0.7C1944.1,198.6,1943.3,198.6,1942.4,198.6z"/>
		<path class="st4" d="M1929.6,186.8c0-6.6,5.8-11.9,12.9-11.9l0,0c7.1,0,12.9,5.3,12.9,11.9l0,0c0,6.6-5.8,11.9-12.9,11.9l0,0
			C1935.3,198.6,1929.6,193.3,1929.6,186.8z"/>
		<path class="st4" d="M1929.6,267.3c0-6.6,5.8-11.9,12.9-11.9l0,0c7.1,0,12.9,5.3,12.9,11.9l0,0c0,6.6-5.8,11.9-12.9,11.9l0,0
			C1935.3,279.1,1929.6,273.8,1929.6,267.3z M1929.6,227c0-6.6,5.8-11.9,12.9-11.9l0,0c7.1,0,12.9,5.3,12.9,11.9l0,0
			c0,6.6-5.8,11.9-12.9,11.9l0,0C1935.3,238.9,1929.6,233.6,1929.6,227z"/>
		<path class="st4" d="M1942.4,319.4c-0.8,0-1.7-0.1-2.5-0.2c-0.8-0.1-1.6-0.4-2.4-0.7c-0.8-0.3-1.5-0.7-2.2-1.1
			c-0.7-0.4-1.4-0.9-1.9-1.5c-0.6-0.5-1.1-1.1-1.6-1.8c-0.5-0.6-0.9-1.3-1.2-2.1c-0.3-0.7-0.6-1.5-0.7-2.2c-0.2-0.8-0.3-1.5-0.3-2.3
			c0-3.1,1.4-6.2,3.8-8.4c0.6-0.6,1.2-1.1,1.9-1.5c0.7-0.4,1.4-0.8,2.2-1.1c0.8-0.3,1.6-0.5,2.4-0.7c1.7-0.3,3.4-0.3,5,0
			c0.8,0.1,1.6,0.4,2.4,0.7c0.8,0.3,1.5,0.7,2.2,1.1c0.7,0.4,1.4,0.9,2,1.5c2.4,2.2,3.8,5.3,3.8,8.4c0,0.8-0.1,1.6-0.3,2.3
			c-0.2,0.8-0.4,1.5-0.7,2.2c-0.3,0.7-0.7,1.4-1.2,2.1c-0.5,0.6-1,1.3-1.6,1.8c-0.6,0.6-1.3,1.1-2,1.5c-0.7,0.4-1.4,0.8-2.2,1.1
			c-0.8,0.3-1.6,0.5-2.4,0.7C1944.1,319.3,1943.3,319.4,1942.4,319.4z"/>
	</g>
	<g class="st3">
		<path class="st5" d="M1506.6,306.7h-344.1c-19.4,0-35.1-15.7-35.1-35.1V101.9c0-19.4,15.7-35.1,35.1-35.1h344.1
			c19.4,0,35.1,15.7,35.1,35.1v169.8C1541.7,291,1526,306.7,1506.6,306.7z"/>
		<path class="st6" d="M1496.3,66.8h-323.5c-25.1,0-45.4,18.7-45.4,41.9v25.5h414.3v-25.5C1541.7,85.5,1521.4,66.8,1496.3,66.8z"/>
		<path class="st7" d="M1517.2,233.8h-43.7c-3.1,0-5.6,2.3-5.6,5.1v40.3c0,3,4.1,4.3,6,1.9l9.8-11.5l18.4,17c2,1.8,5.1,1.8,7.1,0
			l16-14.8c2-1.8,2-4.7,0-6.5l-18.4-17l12.4-9.1C1521.8,237.6,1520.4,233.8,1517.2,233.8z"/>
		<g class="st8">
			<g class="st9">
				<path class="st10" d="M1251.5,215.2h-22.7l-4.6,12.5h-9.8l21.3-53.4h9.1l21,53.4h-9.8L1251.5,215.2z M1231.7,207.8h17.1
					l-8.4-22.8h-0.2L1231.7,207.8z"/>
				<path class="st10" d="M1282.3,207.5v20.3h-9.7v-53.4h22.6c6.4,0,11.4,1.5,15,4.6c3.6,3,5.4,7,5.4,12c0,5-1.8,9-5.4,12.1
					c-3.6,3-8.6,4.5-15,4.5H1282.3z M1282.3,200.3h13c3.6,0,6.3-0.9,8.1-2.6c1.8-1.8,2.7-4,2.7-6.7c0-2.7-0.9-5-2.7-6.8
					c-1.8-1.8-4.5-2.7-8.1-2.7h-13V200.3z"/>
				<path class="st10" d="M1334.9,207.5v20.3h-9.7v-53.4h22.6c6.4,0,11.4,1.5,15,4.6c3.6,3,5.4,7,5.4,12c0,5-1.8,9-5.4,12.1
					c-3.6,3-8.6,4.5-15,4.5H1334.9z M1334.9,200.3h13c3.6,0,6.3-0.9,8.1-2.6c1.8-1.8,2.7-4,2.7-6.7c0-2.7-0.9-5-2.7-6.8
					c-1.8-1.8-4.5-2.7-8.1-2.7h-13V200.3z"/>
				<path class="st10" d="M1387.5,220.6h26.6v7.2h-36.3v-53.4h9.7V220.6z"/>
				<path class="st10" d="M1430,200.3l14-26h10.8l-20.1,34.7v18.7h-9.6v-19.2l-19.8-34.2h10.8L1430,200.3z"/>
			</g>
		</g>
	</g>
	<path class="st11" d="M759.4,27.8c-95,0-172.3,71.3-172.3,159s77.3,159,172.3,159c95,0,172.3-71.3,172.3-159S854.4,27.8,759.4,27.8
		z M888.6,179.3c-0.5-13.4-2.3-26.5-5.5-39.1c17.9,11.5,28.8,25,31.7,39.1H888.6z M701.1,179.3h-54.9c0.7-17.6,3.9-34.3,9.1-49.7
		c15.3-6.8,32.8-12,51.7-15.4C703.5,134.2,701.4,156.3,701.1,179.3z M723.8,111.8c11.5-1.3,23.4-2,35.6-2c12.1,0,24,0.7,35.6,2
		c3.9,20.4,6.2,43.4,6.6,67.5h-84.4C717.6,155.2,719.8,132.2,723.8,111.8z M701.1,194.2c0.4,23,2.4,45.1,5.9,65.1
		c-18.9-3.4-36.4-8.5-51.7-15.4c-5.2-15.4-8.4-32.1-9.1-49.7H701.1z M717.2,194.2h84.4c-0.4,24.1-2.7,47.1-6.6,67.5
		c-11.5,1.3-23.4,2-35.6,2c-12.1,0-24-0.7-35.6-2C719.8,241.3,717.6,218.3,717.2,194.2z M817.6,194.2h54.9
		c-0.7,17.6-3.9,34.3-9.1,49.7c-15.3,6.8-32.8,12-51.7,15.4C815.2,239.3,817.3,217.2,817.6,194.2z M817.6,179.3
		c-0.4-23-2.4-45.1-5.9-65.1c18.9,3.4,36.4,8.5,51.7,15.4c5.2,15.4,8.4,32.1,9.1,49.7H817.6z M808.5,98.7
		c-1.7-7.5-3.7-14.6-5.9-21.3c-4-12.1-8.6-22.1-13.7-29.8c27.8,9.6,51.5,32.4,66.5,62.7C840.9,105.2,825.2,101.3,808.5,98.7z
		 M787.2,81.8c1.5,4.7,3,9.6,4.3,14.8c-10.5-1-21.3-1.6-32.2-1.6c-10.9,0-21.7,0.5-32.2,1.6c1.3-5.2,2.7-10.1,4.3-14.8
		c9.6-28.9,21-39.1,27.9-39.1C766.2,42.6,777.6,52.9,787.2,81.8z M729.8,47.6c-5.1,7.8-9.7,17.7-13.7,29.8
		c-2.2,6.6-4.2,13.7-5.9,21.3c-16.6,2.6-32.4,6.5-46.9,11.6C678.3,79.9,701.9,57.2,729.8,47.6z M630.1,179.3h-26.2
		c2.8-14.2,13.8-27.7,31.7-39.1C632.4,152.8,630.6,165.9,630.1,179.3z M630.1,194.2c0.5,13.4,2.3,26.5,5.5,39.1
		c-17.9-11.5-28.8-25-31.7-39.1H630.1z M710.2,274.9c1.7,7.5,3.7,14.6,5.9,21.3c4,12.1,8.6,22.1,13.7,29.8
		c-27.8-9.6-51.5-32.4-66.5-62.7C677.8,268.4,693.5,272.3,710.2,274.9z M731.5,291.8c-1.5-4.7-3-9.6-4.3-14.8
		c10.5,1,21.3,1.6,32.2,1.6c10.9,0,21.7-0.5,32.2-1.6c-1.3,5.2-2.7,10.1-4.3,14.8c-9.6,28.9-21,39.1-27.9,39.1
		C752.5,330.9,741.1,320.7,731.5,291.8z M788.9,325.9c5.1-7.8,9.7-17.7,13.7-29.8c2.2-6.6,4.2-13.7,5.9-21.3
		c16.6-2.6,32.4-6.5,46.9-11.6C840.4,293.6,816.8,316.4,788.9,325.9z M888.6,194.2h26.2c-2.8,14.2-13.8,27.7-31.7,39.1
		C886.3,220.7,888.1,207.6,888.6,194.2z M906.6,138.6c-7.5-6.5-16.6-12.6-27.2-18c-0.9-0.5-1.9-1-2.8-1.4c-6.1-16.1-14.5-31-25-44
		c-2.9-3.7-6-7.1-9.2-10.4C871.9,81.9,894.8,107.9,906.6,138.6z M676.2,64.8c-3.2,3.3-6.2,6.7-9.2,10.4c-10.4,13-18.8,27.9-25,44
		c-1,0.5-1.9,0.9-2.8,1.4c-10.6,5.4-19.7,11.5-27.2,18C623.9,107.9,646.8,81.9,676.2,64.8z M612.1,234.9c7.5,6.5,16.6,12.6,27.2,18
		c0.9,0.5,1.9,1,2.8,1.4c6.1,16.1,14.5,31,25,44c2.9,3.7,6,7.1,9.2,10.4C646.8,291.6,623.9,265.6,612.1,234.9z M842.5,308.8
		c3.2-3.3,6.2-6.7,9.2-10.4c10.4-13,18.8-27.9,25-44c1-0.5,1.9-0.9,2.8-1.4c10.6-5.4,19.7-11.5,27.2-18
		C894.8,265.6,871.9,291.6,842.5,308.8z"/>
	<g class="st3">
		<path class="st12" d="M1960.4,764.7h25.1c23.6,0,42.8,19.2,42.8,42.8v86.6h-110.7v-86.6C1917.6,783.8,1936.8,764.7,1960.4,764.7z"
			/>
		<path class="st13" d="M1973,764.7L1973,764.7c-1.3,0-2.6,0.1-3.8,0.1c24.8,1.7,44.3,20.8,44.3,44.1v85.2h14.8v-78.4
			C2028.3,787.5,2003.5,764.7,1973,764.7z"/>
		<polygon class="st14" points="2015.4,947.6 1930.5,947.6 1915.4,886.7 2030.6,886.7 		"/>
		<polygon class="st15" points="2012.8,886.7 1997.7,947.6 2015.4,947.6 2030.6,886.7 		"/>
		<path class="st16" d="M2027.2,860.4h-108.5c-11.7,0-21.1,8.7-21.1,19.5v0c0,10.8,9.5,19.5,21.1,19.5h108.5
			c11.7,0,21.1-8.7,21.1-19.5v0C2048.4,869.1,2038.9,860.4,2027.2,860.4z"/>
		<path class="st14" d="M2027.2,860.4h-17.8c11.7,0,21.1,8.7,21.1,19.5v0c0,10.8-9.5,19.5-21.1,19.5h17.8c11.7,0,21.1-8.7,21.1-19.5
			v0C2048.4,869.1,2038.9,860.4,2027.2,860.4z"/>
		<path class="st17" d="M1942.4,797.9c-2.3,5.5-4.1,7.3-10.2,9.4c6,2.1,7.9,3.8,10.2,9.4c2.3-5.5,4.1-7.3,10.2-9.4
			C1946.6,805.1,1944.7,803.4,1942.4,797.9z"/>
		<path class="st17" d="M1991.2,782.2c-2.3,5.5-4.1,7.3-10.2,9.4c6,2.1,7.9,3.8,10.2,9.4c2.3-5.5,4.1-7.3,10.2-9.4
			C1995.4,789.5,1993.5,787.8,1991.2,782.2z"/>
		<path class="st17" d="M2008.9,830.9c-2.3,5.5-4.1,7.3-10.2,9.4c6,2.1,7.9,3.8,10.2,9.4c2.3-5.5,4.1-7.3,10.2-9.4
			C2013,838.1,2011.2,836.4,2008.9,830.9z"/>
		<path class="st17" d="M1970.9,816.6c-2.3,5.5-4.1,7.3-10.2,9.4c6,2.1,7.9,3.8,10.2,9.4c2.3-5.5,4.1-7.3,10.2-9.4
			C1975.1,823.9,1973.2,822.2,1970.9,816.6z"/>
		<ellipse class="st17" cx="1939" cy="846.3" rx="10.2" ry="9.4"/>
	</g>
	<g class="st3">
		<g>
			<path class="st18" d="M1603,946.8h-61.4v-19.2h53.7L1568.9,771h18.5l27.6,163.1C1616,940.8,1610.4,946.8,1603,946.8z"/>
			<polygon class="st6" points="1595.4,927.7 1541.7,927.7 1541.7,946.8 1508.6,946.8 1478.9,771 1568.9,771 			"/>
			<path class="st6" d="M1452.6,946.8h93.1c5.7,0,10.4-4.3,10.4-9.6l0,0c0-5.3-4.6-9.6-10.4-9.6h-93.1c-5.7,0-10.4,4.3-10.4,9.6l0,0
				C1442.2,942.6,1446.9,946.8,1452.6,946.8z"/>
		</g>
		<rect x="1194.8" y="387" class="st19" width="666.3" height="426.5"/>
		<rect x="1165.6" y="387" class="st6" width="657.3" height="426.5"/>
		<rect x="1165.6" y="387" class="st20" width="657.3" height="369.9"/>
		<rect x="1202.5" y="421.1" class="st6" width="583.5" height="301.8"/>
	</g>
	<g class="st3">
		<g>
			<path class="st21" d="M624,977.5L624,977.5c0,16.9,14.9,30.7,33.3,30.7h1413.6c18.4,0,33.3-13.7,33.3-30.7v0
				c0-16.9-14.9-30.7-33.3-30.7H657.3C638.9,946.8,624,960.6,624,977.5z"/>
			<path class="st22" d="M476,977.5L476,977.5c0,16.9,14.9,30.7,33.3,30.7h1380.3c18.4,0,33.3-13.7,33.3-30.7v0
				c0-16.9-14.9-30.7-33.3-30.7H509.2C490.8,946.8,476,960.6,476,977.5z"/>
		</g>
		<g>
			<g>
				<rect x="540.8" y="1008.2" class="st16" width="47.9" height="607"/>
				<rect x="737.2" y="1008.2" class="st16" width="47.9" height="607"/>
				<rect x="570.4" y="1516.7" class="st16" width="190.8" height="29.9"/>
			</g>
			<g>
				<rect x="1795" y="1008.2" class="st16" width="47.9" height="607"/>
				<rect x="1991.3" y="1008.2" class="st16" width="47.9" height="607"/>
				<rect x="1824.5" y="1516.7" class="st16" width="190.8" height="29.9"/>
			</g>
		</g>
	</g>
	<g class="st3">
		<g>
			<rect x="902.5" y="1629" class="st23" width="234.7" height="30.3"/>
			<path class="st23" d="M902.5,1629v-57.3c0-6.2,5.5-11.3,12.3-11.3h173c27.3,0,49.5,20.4,49.5,45.7v22.9H902.5z"/>
		</g>
		<path class="st23" d="M972.3,1637.7c-8.2,0-16.5-1.4-24.6-4.3c-34.5-12.6-51.5-48.6-37.9-80.4l135.9-318L923,1223.5
			c-36.9-3.4-63.9-33.9-60.1-67.9c3.7-34.1,36.7-58.9,73.6-55.5l211,19.6c20.9,2,39.7,12.8,50.7,29.4c11,16.6,12.9,37,5.1,55
			l-168.4,394.2C1024.4,1622.8,999.1,1637.7,972.3,1637.7z"/>
	</g>
	<g class="st3">
		<path class="st23" d="M1075,960H912.4c-18.2,0-35.6-7.2-47.7-19.8c-12.1-12.6-17.7-29.4-15.5-46.1l26.2-194.9
			c4.3-32.2,36.1-55,71-51.1c34.9,4,59.7,33.3,55.3,65.5l-17.3,128.9h90.5c35.2,0,63.6,26.3,63.6,58.7
			C1138.6,933.8,1110.1,960,1075,960z"/>
		<path class="st24" d="M1240,1625.8c-4.1,0-8.2-0.3-12.3-1c-36.5-6.2-60.6-38.6-53.9-72.3l62-309H911.4c-37.1,0-67.2-27.8-67.2-62
			s30.1-62,67.2-62h405.2c20,0,38.9,8.2,51.7,22.4c12.8,14.2,18.1,32.8,14.4,50.9L1306,1575C1300,1604.9,1271.8,1625.8,1240,1625.8z
			"/>
		<path class="st6" d="M1481.3,946.8h-125.1c-9.3,0-16.8-6.9-16.8-15.5l0,0c0-23.5,20.7-42.6,46.1-42.6h66.5
			c25.5,0,46.1,19.1,46.1,42.6l0,0C1498.1,939.9,1490.6,946.8,1481.3,946.8z"/>
		<path class="st18" d="M1494.6,915c-6.9-15.4-23.4-26.2-42.6-26.2h-66.5c-25.5,0-46.1,19.1-46.1,42.6c0,8.6,7.5,15.5,16.8,15.5
			h46.1C1424.2,923.9,1469.1,913,1494.6,915z"/>
		<path class="st25" d="M1365.1,941.6h-136.6c-24.1,0-43.6-18-43.6-40.2s19.5-40.2,43.6-40.2h136.6c24.1,0,43.6,18,43.6,40.2
			S1389.2,941.6,1365.1,941.6z"/>
		
			<ellipse transform="matrix(0.9239 -0.3827 0.3827 0.9239 -234.2469 599.8636)" class="st25" cx="1390.8" cy="888.8" rx="77.6" ry="49.2"/>
		<g>
			<path class="st20" d="M1031.7,367.8c-5.8-12.7-6.4-26.2-2.8-38.5c0.4,0.9,0.8,1.9,1.2,2.8c13.7,30,51.3,44.1,83.8,31.5
				c18.8-7.3,31.9-22,36.9-38.9c11.6,29.4-3.7,62.3-35.3,74.6C1083,411.9,1045.4,397.8,1031.7,367.8z"/>
			<path class="st25" d="M816.7,653.7h186.9c39.4,0,71.4-32,71.4-71.4V362.1H816.7V653.7z"/>
			<ellipse class="st20" cx="1043.7" cy="326" rx="86.1" ry="79.5"/>
			<ellipse class="st20" cx="918.5" cy="329" rx="72.2" ry="66.6"/>
			<path class="st20" d="M826,643.7h70.4c23.3,0,42.3-18.9,42.3-42.3V307.5H829.4c-38.7,0-70.1,31.4-70.1,70.1v199.5
				C759.4,613.9,789.2,643.7,826,643.7z"/>
			<ellipse class="st20" cx="980.9" cy="416.7" rx="76.9" ry="70.9"/>
			<ellipse class="st25" cx="947.9" cy="516.2" rx="47" ry="43.3"/>
			<path class="st20" d="M991.8,528.8L991.8,528.8c-11.2,0-20.3-8.4-20.3-18.7v-63.6h40.5v63.6C1012,520.4,1003,528.8,991.8,528.8z"
				/>
			<path class="st20" d="M1006.1,362.1c-16.9,7.1-29.7,19-37.6,33.1c1.2-0.6,2.4-1.1,3.6-1.6c40-16.9,87.3-0.6,105.5,36.3
				c10.6,21.3,9.1,44.9-1.7,64.3c37.4-17.9,53.4-60,35.7-95.7C1093.3,361.5,1046.1,345.2,1006.1,362.1z"/>
		</g>
		<path class="st26" d="M870.4,1239.1c-47.1,0-92.2-24.3-114.1-66c-40.9-78.1-58.4-168.5-52.2-268.7c5.7-91.1,30.1-171.3,49.5-222.5
			c23.1-60.9,95.3-92.9,161.3-71.6c66,21.3,100.7,88,77.6,148.8c-17,44.6-67.6,199.1-8.3,312.4c30.4,58.1,4,127.9-59,155.9
			C907.6,1235.3,888.9,1239.1,870.4,1239.1z"/>
		<path class="st6" d="M1292.8,949.5h-127.3c-28.8,0-52.2-21.6-52.2-48.2s23.4-48.2,52.2-48.2h127.3c28.8,0,52.2,21.6,52.2,48.2
			S1321.7,949.5,1292.8,949.5z"/>
		<path class="st24" d="M1224.2,960H1064c-22.5,0-43.3-10.9-54.7-28.7L883.9,736.4c-17.9-27.9-8-63.9,22.2-80.5
			c30.2-16.6,69.3-7.4,87.2,20.5l106.9,166.1h124c35.2,0,63.6,26.3,63.6,58.7C1287.8,933.8,1259.3,960,1224.2,960z"/>
		<path class="st25" d="M1479.5,917.2c-6.4,0-12.5-3.3-15.5-8.9c-5.1-9.6-14.4-17.8-48.2-12.4c-9.3,1.5-18.2-4.3-19.8-12.9
			c-1.6-8.6,4.7-16.8,14-18.3c15.8-2.5,63.8-10.1,84.8,29.8c4.1,7.9,0.6,17.3-7.9,21.2C1484.6,916.6,1482,917.2,1479.5,917.2z"/>
		<path class="st25" d="M1400.8,888.8c-3.1,0-6.2-0.8-9-2.4c-8.1-4.6-10.6-14.3-5.6-21.8c13.2-19.7,28.2-31.1,46-34.9
			c20-4.3,42.9,1.4,70,17.2c8,4.7,10.4,14.5,5.3,21.9c-5.1,7.4-15.7,9.6-23.7,4.9c-18.7-10.9-33.5-15.3-43.9-13.1
			c-5.4,1.1-13.7,4.5-24.5,20.7C1412.2,886.1,1406.6,888.8,1400.8,888.8z"/>
		<path class="st25" d="M1375.8,880c-0.8,0-1.7-0.1-2.5-0.2c-9.8-1.3-16.6-9.6-15.2-18.7c4.3-28.1,35.1-70.3,79.5-73
			c9.8-0.6,18.4,6.3,19,15.4c0.6,9.1-6.8,16.9-16.7,17.5c-23.1,1.4-43.8,27.7-46.4,44.7C1392.2,874.1,1384.6,880,1375.8,880z"/>
		<g>
			<rect x="1167.6" y="1629" class="st20" width="234.7" height="30.3"/>
			<path class="st27" d="M1167.6,1629v-57.3c0-6.2,5.5-11.3,12.3-11.3h173c27.3,0,49.5,20.4,49.5,45.7v22.9H1167.6z"/>
		</g>
	</g>
	<g class="st3">
		<path class="st27" d="M1409,507.1v78.3c0,9.2,8.1,16.7,18.1,16.7h134.2c10,0,18.1-7.5,18.1-16.7v-78.3c0-9.2-8.1-16.7-18.1-16.7
			h-134.2C1417.1,490.4,1409,497.9,1409,507.1z"/>
		<path class="st20" d="M1402.3,485.2v33.2c0,5.8,4.1,11,10.2,12.7l78.4,22.1c2.2,0.6,4.5,0.6,6.7,0l78.4-22.1
			c6-1.7,10.2-6.9,10.2-12.7v-33.2c0-4.9-4.3-8.9-9.6-8.9H1412C1406.6,476.4,1402.3,480.3,1402.3,485.2z"/>
		<rect x="1479.2" y="529.9" class="st28" width="30" height="10.1"/>
		<path class="st20" d="M1513.5,468.7h-38.6c-3.4,0-6.1-2.5-6.1-5.6l0,0c0-3.1,2.7-5.6,6.1-5.6h38.6c3.4,0,6.1,2.5,6.1,5.6l0,0
			C1519.6,466.1,1516.9,468.7,1513.5,468.7z"/>
	</g>
	<g class="st3">
		<ellipse class="st29" cx="1574" cy="544" rx="53.1" ry="49"/>
		<polygon class="st27" points="1601.9,586 1627,609.1 1644.5,592.9 1619.5,569.8 		"/>
		<path class="st20" d="M1667,654.3l-48.5-44.8c-5.6-5.1-5.6-13.5,0-18.6l6.3-5.9c5.6-5.1,14.6-5.1,20.2,0l48.5,44.8
			c5.6,5.1,5.6,13.5,0,18.6l-6.3,5.9C1681.6,659.5,1672.6,659.5,1667,654.3z"/>
		<path class="st16" d="M1574,598.9c-15.9,0-30.8-5.7-42.1-16.1l0,0c-23.2-21.4-23.2-56.3,0-77.7c23.2-21.4,61-21.4,84.2,0
			c11.2,10.4,17.4,24.2,17.4,38.8c0,14.7-6.2,28.5-17.4,38.8C1604.8,593.2,1589.9,598.9,1574,598.9z M1541,574.4
			c8.8,8.1,20.5,12.6,33,12.6c12.5,0,24.2-4.5,33-12.6c8.8-8.1,13.7-18.9,13.7-30.4c0-11.5-4.9-22.3-13.7-30.4
			c-18.2-16.8-47.8-16.8-66,0C1522.8,530.3,1522.8,557.6,1541,574.4L1541,574.4z"/>
	</g>
	<path class="st30" d="M1541,677.6h-93.7c-10.7,0-19.3-8-19.3-17.8l0,0c0-9.8,8.6-17.8,19.3-17.8h93.7c10.7,0,19.3,8,19.3,17.8l0,0
		C1560.3,669.7,1551.7,677.6,1541,677.6z"/>
	<g class="st3">
		<g>
			<path class="st7" d="M954.6,1307.8H718.8c-16.2,0-29.3-13.1-29.3-29.3v-11.3c0-16.2,13.1-29.3,29.3-29.3h235.8
				c16.2,0,29.3,13.1,29.3,29.3v11.3C983.9,1294.6,970.8,1307.8,954.6,1307.8z"/>
			<path class="st31" d="M1163.4,1307.8H952c-16.2,0-29.3-13.1-29.3-29.3v-11.3c0-16.2,13.1-29.3,29.3-29.3h211.4
				c16.2,0,29.3,13.1,29.3,29.3v11.3C1192.8,1294.6,1179.6,1307.8,1163.4,1307.8z"/>
		</g>
		<g>
			<g>
				<ellipse class="st20" cx="1017.8" cy="1637.2" rx="23.8" ry="22"/>
				<ellipse class="st20" cx="864.4" cy="1637.2" rx="23.8" ry="22"/>
			</g>
			<rect x="917.5" y="1342.1" class="st27" width="47.2" height="273.2"/>
			<rect x="909.9" y="1342.1" class="st20" width="62.5" height="64.7"/>
			<path class="st20" d="M860.9,1307.8v14c0,20.7,18.2,37.5,40.7,37.5h88.6c22.5,0,40.7-16.8,40.7-37.5v-14H860.9z"/>
			<path class="st20" d="M827.5,1614.3v16.7h227.3v-16.7c0-13.4-11.7-24.2-26.2-24.2H853.7C839.2,1590.1,827.5,1601,827.5,1614.3z"
				/>
		</g>
		<g>
			<path class="st31" d="M848.1,800.7H697.3c-22.2,0-40.2,16.6-40.2,37.1v256.9c0,20.5,18,37.1,40.2,37.1h150.8
				c22.2,0,40.2-16.6,40.2-37.1V837.8C888.3,817.3,870.3,800.7,848.1,800.7z"/>
			<path class="st7" d="M802.9,800.7H652.1c-22.2,0-40.2,16.6-40.2,37.1v256.9c0,20.5,18,37.1,40.2,37.1h150.8
				c22.2,0,40.2-16.6,40.2-37.1V837.8C843.1,817.3,825.1,800.7,802.9,800.7z"/>
		</g>
		<path class="st20" d="M923.5,1355.9H804.4c-58,0-105.1-43.5-105.1-97V916.5c0-13.1,11.5-23.8,25.7-23.8
			c14.2,0,25.7,10.6,25.7,23.8v342.4c0,27.3,24.1,49.5,53.7,49.5h119.1c14.2,0,25.7,10.6,25.7,23.8
			C949.3,1345.3,937.8,1355.9,923.5,1355.9z"/>
	</g>
	<g class="st3">
		<path class="st6" d="M2249.6,326.9v77.7c0,24.6-21.6,44.5-48.3,44.5h-571.9c-26.7,0-48.3-19.9-48.3-44.5v-77.7
			c0-24.6,21.6-44.5,48.3-44.5h571.9C2228,282.4,2249.6,302.3,2249.6,326.9z"/>
		<path class="st16" d="M1768.6,282.4v166.8h-139.2c-26.7,0-48.3-19.9-48.3-44.5v-77.7c0-24.6,21.6-44.5,48.3-44.5H1768.6z"/>
		<path class="st6" d="M1732.1,402.6l-31.8-29.3c-2.3-2.1-5.5-2.9-8.4-2.4l-5.4-5c9.8-13.9,8.1-32.8-5.1-45c-15.2-14-39.9-14-55.1,0
			c-7.4,6.8-11.4,15.8-11.4,25.4c0,9.6,4.1,18.6,11.4,25.4c7.4,6.8,17.1,10.5,27.5,10.5c7.6,0,14.9-2,21.2-5.8l5.4,5
			c-0.6,2.7,0.3,5.7,2.6,7.8l31.8,29.3c3.6,3.4,9.6,3.4,13.2,0l4.2-3.8C1735.8,411.4,1735.8,405.9,1732.1,402.6z M1632.3,366.3
			c-5.8-5.3-8.9-12.4-8.9-19.9s3.2-14.6,8.9-19.9c6-5.5,13.8-8.2,21.6-8.2c7.8,0,15.6,2.7,21.6,8.2c11.9,11,11.9,28.8,0,39.8
			c-5.8,5.3-13.4,8.2-21.6,8.2S1638,371.6,1632.3,366.3z"/>
		<g class="st8">
			<path class="st32" d="M1832.5,334.8h7.7v38.1c0,4.7-1.6,8.4-4.8,11.2c-3.2,2.8-7.4,4.1-12.6,4.1c-5.5,0-9.9-1.3-13.1-3.9
				c-3.2-2.6-4.8-6.3-4.7-11.2l0.1-0.2h7.4c0,3.3,0.9,5.7,2.7,7.3c1.8,1.6,4.3,2.4,7.6,2.4c2.8,0,5.2-0.9,7-2.7
				c1.8-1.8,2.7-4.1,2.7-7.1V334.8z"/>
			<path class="st32" d="M1850.6,367.6c0-5.8,1.7-10.6,5.1-14.3c3.4-3.7,8-5.6,13.8-5.6c5.9,0,10.5,1.9,13.9,5.6
				c3.4,3.7,5.1,8.5,5.1,14.3v0.8c0,5.8-1.7,10.6-5.1,14.3c-3.4,3.7-8,5.6-13.9,5.6c-5.9,0-10.5-1.9-13.9-5.6
				c-3.4-3.7-5.1-8.5-5.1-14.3V367.6z M1858.3,368.4c0,4.1,0.9,7.6,2.8,10.3c1.9,2.7,4.7,4,8.4,4c3.7,0,6.5-1.3,8.4-4
				c1.9-2.7,2.9-6.1,2.9-10.3v-0.8c0-4.1-1-7.5-2.9-10.2c-1.9-2.7-4.7-4.1-8.4-4.1c-3.7,0-6.5,1.4-8.4,4.1
				c-1.9,2.7-2.8,6.1-2.8,10.2V368.4z"/>
			<path class="st32" d="M1934.3,369.4c0,5.6-1.5,10.2-4.4,13.7c-2.9,3.5-7,5.2-12.1,5.2c-2.8,0-5.2-0.5-7.3-1.5
				c-2.1-1-3.8-2.5-5.1-4.4l-0.9,5.2h-6.3v-56.4h7.7V353c1.3-1.7,3-3.1,5-4c2-0.9,4.3-1.4,6.9-1.4c5.2,0,9.3,1.9,12.2,5.8
				c2.9,3.9,4.4,8.9,4.4,15.2V369.4z M1926.6,368.7c0-4.5-0.9-8.1-2.7-11c-1.8-2.8-4.5-4.3-8.2-4.3c-2.4,0-4.4,0.5-6,1.6
				c-1.6,1.1-2.9,2.5-3.9,4.3v17c1,1.9,2.3,3.4,3.9,4.5c1.6,1.1,3.6,1.6,6.1,1.6c3.6,0,6.3-1.2,8.1-3.6c1.8-2.4,2.7-5.5,2.7-9.5
				V368.7z"/>
			<path class="st32" d="M1996.2,374.2c0-2.4-1-4.4-2.9-6c-2-1.6-5.4-3-10.4-4.1c-6-1.3-10.7-3.3-14.1-5.9c-3.4-2.6-5.1-5.8-5.1-9.8
				c0-4.1,1.8-7.5,5.5-10.3c3.6-2.8,8.4-4.1,14.2-4.1c6.2,0,11.2,1.6,14.9,4.7c3.7,3.2,5.5,6.8,5.4,11l-0.1,0.2h-7.4
				c0-3.1-1.1-5.6-3.3-7.5c-2.2-1.9-5.4-2.9-9.5-2.9c-3.8,0-6.8,0.8-8.8,2.4c-2.1,1.6-3.1,3.7-3.1,6.3c0,2.3,1.1,4.2,3.3,5.7
				c2.2,1.5,5.8,2.9,10.8,4c6,1.4,10.6,3.4,13.7,6.1c3.1,2.7,4.7,6,4.7,9.9c0,4.2-1.9,7.7-5.6,10.2c-3.8,2.6-8.7,3.9-14.7,3.9
				c-5.7,0-10.7-1.4-15.1-4.3c-4.4-2.9-6.5-6.7-6.4-11.4l0.1-0.2h7.4c0,3.4,1.3,5.9,4,7.7c2.7,1.8,6,2.6,10,2.6c3.9,0,7-0.8,9.3-2.3
				C1995.1,378.9,1996.2,376.8,1996.2,374.2z"/>
			<path class="st32" d="M2031.3,388.3c-5.9,0-10.6-1.8-14.1-5.4c-3.5-3.6-5.2-8.3-5.2-14.1v-1.6c0-5.6,1.8-10.2,5.4-13.9
				c3.6-3.7,7.8-5.6,12.8-5.6c5.7,0,10.1,1.6,13,4.8c2.9,3.2,4.4,7.4,4.4,12.7v4.4H2020l-0.1,0.2c0.1,3.8,1.1,6.8,3.1,9.3
				c2,2.4,4.8,3.6,8.4,3.6c2.6,0,4.9-0.3,6.9-1c2-0.7,3.7-1.6,5.1-2.8l3,4.6c-1.5,1.4-3.5,2.5-6,3.5
				C2037.9,387.8,2034.9,388.3,2031.3,388.3z M2030.2,353.3c-2.6,0-4.8,1-6.6,3c-1.8,2-3,4.5-3.4,7.6l0.1,0.2h19.6v-0.9
				c0-2.8-0.8-5.1-2.4-7C2035.7,354.2,2033.3,353.3,2030.2,353.3z"/>
			<path class="st32" d="M2082.3,387.5c-0.3-1.2-0.5-2.2-0.6-3.1c-0.1-0.9-0.2-1.8-0.3-2.7c-1.4,1.9-3.3,3.5-5.6,4.7
				c-2.3,1.3-4.8,1.9-7.5,1.9c-4.4,0-7.8-1-10.1-3.1c-2.3-2.1-3.5-5-3.5-8.6c0-3.7,1.6-6.7,4.9-8.8c3.3-2.1,7.7-3.2,13.3-3.2h8.4
				v-3.9c0-2.3-0.8-4.1-2.3-5.4c-1.5-1.3-3.7-2-6.4-2c-2.5,0-4.5,0.6-6.1,1.8c-1.6,1.2-2.3,2.6-2.3,4.2h-7.4l-0.1-0.2
				c-0.2-2.8,1.3-5.4,4.4-7.8c3.1-2.4,7-3.5,11.9-3.5c4.8,0,8.7,1.1,11.6,3.4c2.9,2.3,4.4,5.5,4.4,9.7v18.8c0,1.4,0.1,2.7,0.2,4.1
				c0.2,1.3,0.4,2.6,0.9,3.8H2082.3z M2069.4,382.3c2.8,0,5.3-0.7,7.6-2c2.2-1.3,3.7-2.8,4.4-4.5v-6.3h-8.7c-3.1,0-5.6,0.7-7.5,2.2
				c-1.9,1.4-2.8,3.1-2.8,5.1c0,1.7,0.6,3.1,1.8,4.1C2065.4,381.8,2067.1,382.3,2069.4,382.3z"/>
			<path class="st32" d="M2120.4,354.7l-4-0.2c-2,0-3.8,0.4-5.2,1.3c-1.4,0.9-2.5,2.1-3.2,3.8v28h-7.7v-39.1h6.9l0.7,5.7
				c1.2-2,2.7-3.6,4.4-4.7c1.8-1.1,3.8-1.7,6.1-1.7c0.6,0,1.1,0,1.6,0.1c0.5,0.1,1,0.2,1.3,0.3L2120.4,354.7z"/>
			<path class="st32" d="M2144.4,382.7c2.6,0,4.8-0.7,6.8-2.2c1.9-1.5,2.9-3.2,2.9-5.4h6.9l0.1,0.2c0.1,3.4-1.5,6.4-4.9,9
				c-3.4,2.6-7.3,3.9-11.8,3.9c-6.2,0-10.9-1.9-14.2-5.6c-3.3-3.7-4.9-8.4-4.9-14v-1.5c0-5.6,1.6-10.2,4.9-13.9
				c3.3-3.7,8-5.6,14.1-5.6c5,0,9,1.4,12.2,4.1c3.1,2.7,4.7,6,4.6,9.9l-0.1,0.2h-7c0-2.4-0.9-4.4-2.7-6.1c-1.8-1.7-4.1-2.5-6.9-2.5
				c-4.1,0-6.9,1.3-8.7,4c-1.7,2.7-2.6,6-2.6,9.9v1.5c0,4,0.9,7.3,2.6,10C2137.4,381.3,2140.3,382.7,2144.4,382.7z"/>
			<path class="st32" d="M2177.5,353.6c1.5-1.9,3.3-3.3,5.4-4.4s4.5-1.6,7.1-1.6c4.5,0,8,1.3,10.6,3.8c2.5,2.5,3.8,6.4,3.8,11.6
				v24.5h-7.7v-24.6c0-3.2-0.8-5.6-2.3-7.2c-1.5-1.5-3.7-2.3-6.7-2.3c-2.1,0-4.1,0.5-5.8,1.4c-1.7,0.9-3.2,2.2-4.3,3.8v28.9h-7.7
				v-56.4h7.7V353.6z"/>
		</g>
	</g>
	<g class="st3">
		<path class="st33" d="M2141,591.3h-315.7c-10.5,0-20.1,3.3-27.8,8.7l-47.9-19c-9.5-3.8-18.5,6.1-13,14.1l43.1,62.4v23.3
			c0,23.2,20.4,42.1,45.6,42.1H2141c25.2,0,45.6-18.8,45.6-42.1v-47.5C2186.6,610.1,2166.2,591.3,2141,591.3z"/>
		<g>
			<rect x="1846.6" y="620.6" class="st6" width="149.1" height="19.6"/>
			<rect x="1846.6" y="662.9" class="st6" width="268.9" height="19.6"/>
		</g>
	</g>
	<g class="st3">
		<g>
			<path class="st20" d="M1653.9,1383h-15.7v-34.2c0-4,3.5-7.2,7.9-7.2l0,0c4.3,0,7.9,3.2,7.9,7.2V1383z"/>
			<g>
				<path class="st34" d="M1646.7,1335.9h-5.3h-14.2h-89.3v21.3h89.3h14.2h5.3c6.4,0,11.6-4.8,11.6-10.7
					S1653.1,1335.9,1646.7,1335.9z"/>
				<path class="st27" d="M1540.5,1335.9h-8.9c-6.4,0-11.6,4.8-11.6,10.7s5.2,10.7,11.6,10.7h8.9c6.4,0,11.6-4.8,11.6-10.7
					S1546.8,1335.9,1540.5,1335.9z"/>
			</g>
			<path class="st34" d="M1543.5,1383h-15.7v-34.2c0-4,3.5-7.2,7.9-7.2l0,0c4.3,0,7.9,3.2,7.9,7.2V1383z"/>
		</g>
		<g>
			<path class="st20" d="M1742.4,1409.4v223.4c0,14.6-12.8,26.4-28.6,26.4h-236.2V1383h236.2
				C1729.6,1383,1742.4,1394.8,1742.4,1409.4z"/>
			<path class="st27" d="M1455.9,1383h42c12.2,0,22.1,9.9,22.1,22.1v232c0,12.2-9.9,22.1-22.1,22.1h-42c-12.2,0-22.1-9.9-22.1-22.1
				v-232C1433.7,1392.9,1443.6,1383,1455.9,1383z"/>
			<path class="st34" d="M1752.4,1409.4v93.6c0,7.6-6.7,13.7-14.9,13.7h-202.6c-8.2,0-14.9-6.2-14.9-13.7v-93.6
				c0-14.6-12.8-26.4-28.6-26.4h232.4C1739.6,1383,1752.4,1394.8,1752.4,1409.4z"/>
			<rect x="1610.5" y="1493.2" class="st28" width="50.1" height="14.5"/>
		</g>
	</g>
</g>
</svg>
