<?xml version="1.0" encoding="utf-8"?>
<!-- Generator: Adobe Illustrator 22.1.0, SVG Export Plug-In . SVG Version: 6.00 Build 0)  -->
<svg version="1.1" id="Layer_1" xmlns="http://www.w3.org/2000/svg" xmlns:xlink="http://www.w3.org/1999/xlink" x="0px" y="0px"
	 viewBox="0 0 1400 1100" style="enable-background:new 0 0 1400 1100;" xml:space="preserve">
<style type="text/css">
	.st0{display:none;fill:#EDEDEE;}
	.st1{fill:#C8C7C6;}
	.st2{fill:#E6E6E5;}
	.st3{fill:#FFFFFF;}
	.st4{fill:#E9E9E9;}
	.st5{display:none;fill:none;stroke:#E9E9E9;stroke-width:5.3458;stroke-miterlimit:10;}
	.st6{display:none;fill:#E9E9E9;}
	.st7{fill:#E9332B;}
	.st8{fill:#010101;}
	.st9{fill:#295379;}
	.st10{fill:#A52122;}
	.st11{fill:none;stroke:#EC8981;stroke-width:77.9495;stroke-linecap:round;stroke-miterlimit:10;}
	.st12{fill:#2873AC;}
	.st13{fill:#EC8981;}
	.st14{fill:#2C84C6;}
	.st15{fill:none;stroke:#F69E9F;stroke-width:77.9495;stroke-linecap:round;stroke-miterlimit:10;}
	.st16{fill:#F69E9F;}
	.st17{fill:#062138;}
	.st18{fill:#092A45;}
	.st19{fill:#744137;}
	.st20{fill:#231F20;}
	.st21{fill:#B58469;}
	.st22{fill:#D19879;}
	.st23{fill:#E6B398;}
	.st24{fill:none;stroke:#6E809E;stroke-width:15.5899;stroke-miterlimit:10;}
	.st25{fill:#6E809E;}
	.st26{fill:#304249;}
	.st27{fill:none;stroke:#304249;stroke-width:5.1966;stroke-linecap:round;stroke-linejoin:round;stroke-miterlimit:10;}
	.st28{fill:#1E2E34;}
	.st29{fill:#141D21;}
	.st30{fill:#BBBBBB;}
	.st31{fill:#D4D4D4;}
	.st32{fill:#9B9C9C;}
	.st33{fill:#908F8F;}
	.st34{fill:#A9A8A8;}
	.st35{fill:#933838;}
	.st36{fill:#DEDC95;}
	.st37{fill:#015F87;}
	.st38{fill:#01AB89;}
	.st39{fill:#658A99;}
</style>
<path class="st0" d="M1400,1090c0-0.4,0-0.9,0-1.3C1400,487.4,1088.7,0,704.7,0S9.5,487.4,9.5,1088.7c0,0.4,0,0.9,0,1.3H1400z"/>
<path class="st1" d="M1278.9,1090H9.5c-5.2,0-9.5-4.9-9.5-11l0,0c0-6.1,4.2-11,9.5-11h1269.4c5.2,0,9.5,4.9,9.5,11l0,0
	C1288.4,1085.1,1284.1,1090,1278.9,1090z"/>
<g>
	<rect x="44.7" y="69.4" class="st2" width="354" height="493.1"/>
	<rect x="65.2" y="91.5" class="st3" width="313.2" height="448.8"/>
	<g>
		<g>
			<g>
				<polygon class="st4" points="396.2,136.2 11.6,136.2 31,107.9 415.6,107.9 				"/>
				<polygon class="st4" points="396.2,190.8 11.6,190.8 31,162.6 415.6,162.6 				"/>
				<polygon class="st4" points="396.2,245.4 11.6,245.4 31,217.2 415.6,217.2 				"/>
				<polygon class="st4" points="396.2,300 11.6,300 31,271.8 415.6,271.8 				"/>
				<polygon class="st4" points="396.2,354.6 11.6,354.6 31,326.4 415.6,326.4 				"/>
				<polygon class="st4" points="396.2,409.2 11.6,409.2 31,381 415.6,381 				"/>
			</g>
		</g>
		<line class="st5" x1="363.5" y1="107.9" x2="363.5" y2="492.8"/>
		<path class="st6" d="M363.5,518.9L363.5,518.9c-4.7,0-8.6-4.4-8.6-9.9v-36.7c0-5.5,3.8-9.9,8.6-9.9l0,0c4.7,0,8.6,4.4,8.6,9.9V509
			C372.1,514.5,368.2,518.9,363.5,518.9z"/>
	</g>
</g>
<g>
	<path class="st7" d="M764.7,801.3H657.6c-21.2,0-38.4-17.2-38.4-38.4v-191c0-21.2,17.2-38.4,38.4-38.4h107.1
		c21.2,0,38.4,17.2,38.4,38.4v191C803.2,784.1,785.9,801.3,764.7,801.3z"/>
	<g>
		<path class="st3" d="M603.7,800.2L603.7,800.2c-1.9,0-3.4-1.8-3.4-4v-79.4c0-2.2,1.5-4,3.4-4l0,0c1.9,0,3.4,1.8,3.4,4v79.4
			C607.1,798.4,605.6,800.2,603.7,800.2z"/>
	</g>
	<path class="st8" d="M619.1,717.6h-30.9v-15.2c0-8.5,6.9-15.4,15.4-15.4l0,0c8.5,0,15.4,6.9,15.4,15.4V717.6z"/>
	<g>
		
			<rect x="698.7" y="871" transform="matrix(-1 -1.224647e-16 1.224647e-16 -1 1422.2887 1893.5677)" class="st9" width="24.9" height="151.5"/>
		<path class="st9" d="M797.3,1046.1H624.5v-1.7c0-13.7,11.1-24.8,24.8-24.8h123.1c13.7,0,24.8,11.1,24.8,24.8V1046.1z"/>
		
			<rect x="691.4" y="826.9" transform="matrix(-1 -1.224647e-16 1.224647e-16 -1 1422.2887 1769.5415)" class="st8" width="39.6" height="115.7"/>
		<ellipse class="st8" cx="638.3" cy="1054" rx="11.6" ry="14.1"/>
		<ellipse class="st8" cx="783.7" cy="1054" rx="11.6" ry="14.1"/>
		<path class="st10" d="M588.2,817.5L588.2,817.5c0-10,8.1-18,18-18H816c10,0,18,8.1,18,18v0c0,10-8.1,18-18,18H606.3
			C596.3,835.6,588.2,827.5,588.2,817.5z"/>
		<path class="st3" d="M818.6,805.4L818.6,805.4c-1.9,0-3.4-1.8-3.4-4V718c0-2.2,1.5-4,3.4-4l0,0c1.9,0,3.4,1.8,3.4,4v83.4
			C822,803.6,820.5,805.4,818.6,805.4z"/>
		<path class="st8" d="M834.1,719h-30.9v-16.7c0-8.5,6.9-15.4,15.4-15.4l0,0c8.5,0,15.4,6.9,15.4,15.4V719z"/>
	</g>
</g>
<g>
	<line class="st11" x1="670.8" y1="571.2" x2="636.8" y2="685.1"/>
	<path class="st12" d="M691.7,579.5c4-13.3-2.1-27.9-13.7-32.5c-11.5-4.6-24.1,2.5-28.1,15.8l-16,53.6L676,632L691.7,579.5z"/>
	<g>
		<g>
			<path class="st13" d="M541.5,675.9l91.5-14.6c12.1-1.9,23.3,7.9,25,21.9s-6.8,27-19,28.9c-1.4,0.2-2.9,0.3-4.2,0.2l-92.2-5.7
				c-7.4-0.5-13-7.7-12.6-16.3C530.3,682.9,535.2,676.9,541.5,675.9z"/>
		</g>
	</g>
	<path class="st13" d="M495.7,712h32.1c9,0.1,16.8-6.8,19.4-16.8l5.2-19.6l-30.9-3.1c-13.9-1.4-25.8,11.2-25.8,27.3V712z"/>
	<path class="st14" d="M794.2,744.9h-148V597.8c0-31,25.2-56.2,56.2-56.2H738c31,0,56.2,25.2,56.2,56.2V744.9z"/>
	<line class="st15" x1="772.7" y1="578.4" x2="796.3" y2="695.8"/>
	<path class="st14" d="M794.2,572.6c-2.8-13.7-14.6-22.3-26.5-19.1c-11.9,3.2-19.3,16.9-16.5,30.7l11.1,55.3l42.8-12.8L794.2,572.6z
		"/>
	<g>
		<g>
			<path class="st13" d="M758.9,680.6l29.9-10c12.2-4.1,25,4,28.5,18.1c3.5,14.1-3.5,28.9-15.7,33c-4.4,1.5-8.9,1.4-12.9,0
				l-29.9-10.2c-7.3-2.5-11.5-11.4-9.4-19.9C750.8,686,754.6,682.1,758.9,680.6z"/>
		</g>
	</g>
	<path class="st16" d="M737.3,712.8h32.1c9,0.1,16.8-6.8,19.4-16.8l0,0c2.7-10.1-3.3-20.4-12.4-21.3l-13.3-1.3
		c-13.9-1.4-25.8,11.2-25.8,27.3V712.8z"/>
	<path class="st17" d="M771.4,799.5H646.1v-67.3h148v36.1C794.2,782.8,784,799.5,771.4,799.5z"/>
	<g>
		<g>
			<path class="st17" d="M603.9,758l62.7-23.8c15.2-5.8,31.7,3.8,36.7,21.4c4.9,17.1-2.9,35.5-17.2,41.9l-61.6,27.3
				c-15.8,7-33.5-2.2-39.6-20.4c-6-18.3,1.9-38.8,17.7-45.7C603,758.4,603.5,758.2,603.9,758z"/>
		</g>
	</g>
	<g>
		<g>
			<path class="st17" d="M721.1,748.6l39.9-14.4c15.3-5.5,31.6,4.3,36.4,22c4.6,16.9-3,34.8-17,41.3l-38.8,17.9
				c-15.7,7.2-33.6-1.6-39.8-19.8c-6.3-18.2,1.4-38.8,17.1-46C719.7,749.2,720.4,748.9,721.1,748.6z"/>
		</g>
	</g>
	<g>
		<g>
			<path class="st18" d="M640.6,782.7l64.3,223.8c3.7,12.9-2.3,26.9-13.5,31.2c-10.4,4-21.6-1.9-26.1-13.2l-84.4-214.7
				c-7.3-18.7-0.2-40.7,16-49.2c16.2-8.5,35.2-0.2,42.6,18.4C639.8,780.2,640.3,781.4,640.6,782.7z"/>
		</g>
	</g>
	<path class="st8" d="M663.5,1015.5l-31.6,40.2c-3.6,4.5-1.2,11.8,4,12.5l20.9,2.9c4.3,0.6,8.7-0.7,12.2-3.6l30.1-25
		c2.9-2.4,4.8-6.2,5.1-10.3l1.4-16.7H663.5z"/>
	<g>
		<g>
			<path class="st18" d="M753.5,784.5l11.3,230.8c0.7,13.6-8.3,25.2-20.1,26c-10.9,0.7-20.4-8.4-22.2-20.6l-32.8-228
				c-2.9-20.2,8.9-39.4,26.4-42.8c17.5-3.4,34.1,10.3,37,30.6C753.3,781.8,753.5,783.1,753.5,784.5z"/>
		</g>
	</g>
	<path class="st8" d="M723,1018l-31.6,40.2c-3.6,4.5-1.2,11.8,4,12.5l20.9,2.9c4.3,0.6,8.7-0.7,12.2-3.6l30.1-25
		c2.9-2.4,4.8-6.2,5.1-10.3l1.4-16.7H723z"/>
	<path class="st12" d="M740.6,541.5H703h-23.3l3.1,12.1l0.6,2.4c4.7,17.9,21,28.1,36.5,22.7v0C734,573.8,742.5,557.8,740.6,541.5z"
		/>
	<polygon class="st13" points="721.5,482 672.1,499.2 685.4,550.6 732,522.5 	"/>
	<path class="st16" d="M732,522.5l-46.6,28l0.5,2.1c4.1,15.8,18.5,24.7,32.1,20v0c13.6-4.7,21.4-21.4,17.3-37.2L732,522.5z"/>
	<path class="st16" d="M680.1,532.9L680.1,532.9c-31.6,0-57.2-25.6-57.2-57.2v-61.1c0-31.6,25.6-57.2,57.2-57.2h0
		c31.6,0,57.2,25.6,57.2,57.2v61.1C737.3,507.3,711.7,532.9,680.1,532.9z"/>
	<path class="st19" d="M737.3,482.5L737.3,482.5v-37.4H722v30.2h-99.2v7.2v1.9v2.3h0.1c1.1,25.7,19.4,46.2,41.9,46.2h30.6
		c22.5,0,40.8-20.5,41.9-46.2h0.1v-2.3c0,0,0,0,0,0V482.5z"/>
	<path class="st3" d="M662.1,490.2c2.2,9,9.4,15.6,17.9,15.6c8.5,0,15.7-6.6,17.9-15.6H662.1z"/>
	<ellipse class="st20" cx="637.8" cy="438.4" rx="3.9" ry="4.5"/>
	<ellipse class="st20" cx="683.9" cy="438.4" rx="3.9" ry="4.5"/>
	<path class="st16" d="M663.3,479.8L663.3,479.8c-4.8,0-8.7-4.5-8.7-10.1v-28.3c0-5.6,3.9-10.1,8.7-10.1l0,0c4.8,0,8.7,4.5,8.7,10.1
		v28.3C672,475.3,668.1,479.8,663.3,479.8z"/>
	<path class="st19" d="M651,401.9h32.7c18,0,32.6-14.6,32.6-32.6v0c0-18-14.6-32.6-32.6-32.6h-80.5v17.3
		C603.2,380.5,624.6,401.9,651,401.9z"/>
	<path class="st19" d="M713.1,399.6L713.1,399.6c-4.9,0-8.8-4.6-8.8-10.2v-28h19.4c7.5,0,13.6,7,13.6,15.7v69.3h-15.3v-36.6
		C721.9,404.2,718,399.6,713.1,399.6z"/>
	<ellipse class="st16" cx="728.7" cy="445.1" rx="12.4" ry="14.4"/>
	<rect x="630.2" y="417.4" class="st19" width="22.8" height="6.6"/>
	<rect x="678.6" y="417.4" class="st19" width="22.8" height="6.6"/>
</g>
<g>
	<path class="st3" d="M1088.3,741.6H174.7c-8.3,0-15-6.7-15-15v0c0-8.3,6.7-15,15-15h913.6c8.3,0,15,6.7,15,15v0
		C1103.3,734.9,1096.6,741.6,1088.3,741.6z"/>
	<rect x="213.6" y="741.6" class="st21" width="835.9" height="49.5"/>
	<rect x="213.6" y="756.9" class="st22" width="835.9" height="34.2"/>
	<g>
		<polygon class="st23" points="372.4,1068.1 338.5,1068.1 391.4,791.1 425.3,791.1 		"/>
		<polygon class="st22" points="363.1,1068.1 329.3,1068.1 382.2,791.1 416,791.1 		"/>
	</g>
	<g>
		<polygon class="st23" points="378.2,901.2 289.6,901.2 294.1,882 381.9,882 		"/>
		<polygon class="st22" points="272.4,1068.1 238.5,1068.1 291.4,791.1 325.3,791.1 		"/>
		<polygon class="st23" points="263.2,1068.1 229.3,1068.1 282.2,791.1 316,791.1 		"/>
	</g>
	<g>
		<polygon class="st23" points="884.9,1068.1 918.7,1068.1 865.8,791.1 832,791.1 		"/>
		<polygon class="st22" points="894.1,1068.1 927.9,1068.1 875.1,791.1 841.2,791.1 		"/>
	</g>
	<g>
		<polygon class="st23" points="877.8,901.2 966.2,901.2 961.7,882 873.9,882 		"/>
		<polygon class="st22" points="984.8,1068.1 1018.7,1068.1 965.8,791.1 931.9,791.1 		"/>
		<polygon class="st23" points="994.1,1068.1 1027.9,1068.1 975,791.1 941.2,791.1 		"/>
	</g>
</g>
<g>
	<polyline class="st24" points="996.5,690.9 1077.1,457.6 900.8,375.9 	"/>
	<path class="st25" d="M969.5,684h44.2c15.3,0,27.6,12.4,27.6,27.6v0h-99.4l0,0C941.9,696.3,954.2,684,969.5,684z"/>
	<path class="st3" d="M978,684h5.7v-6.2c0-1.8-1.3-3.3-2.8-3.3l0,0c-1.6,0-2.8,1.5-2.8,3.3V684z"/>
	<ellipse class="st25" cx="1077.1" cy="457.6" rx="11.3" ry="13"/>
	<ellipse class="st3" cx="1077.1" cy="457.6" rx="5.3" ry="6.1"/>
	<g>
		<ellipse class="st3" cx="865.6" cy="437" rx="14" ry="16.2"/>
		<path class="st25" d="M807.5,415.5c11.7-36.3,46.5-54.9,78.1-41.7c31.5,13.3,47.8,53.4,36.7,89.9L807.5,415.5z"/>
		<path class="st25" d="M864.4,381.9l32.9,13.8l10.7-34c3.3-10.5-1.4-22.1-10.5-25.9h0c-9.1-3.8-19.1,1.6-22.4,12.1L864.4,381.9z"/>
	</g>
</g>
<g>
	<path class="st26" d="M574.6,695.8H372.3c-4.2,0-7.8-3.4-8.6-8.2l-27.9-169.8c-0.8-4.8,2.4-9.2,6.6-9.2h205.1c3.2,0,6,2.7,6.6,6.3
		l28,170.4C583.1,690.7,579.4,695.8,574.6,695.8z"/>
	<path class="st27" d="M544.1,702v204.2c0,23.9,16.8,43.3,37.5,43.3h0c20.7,0,37.5-19.4,37.5-43.3V713.6c0-2,1.4-3.6,3.1-3.6h65.2"
		/>
	<path class="st28" d="M582.2,685.3l-28-170.4c-0.5-3-2.5-5.4-5-6.1c-3.3,1-5.6,4.8-4.9,9l27.9,169.8c0.6,3.5,2.7,6.3,5.4,7.5
		C580.8,693.5,582.9,689.5,582.2,685.3z"/>
	<path class="st26" d="M685.3,711.6H390.9c-8.7,0-15.8-7.1-15.8-15.8l0,0h326.1l0,0C701.1,704.5,694,711.6,685.3,711.6z"/>
	<path class="st28" d="M701.1,695.8H575.4c0,8.7,6.9,15.8,15.5,15.8h95.7C695.2,711.6,701.1,704.5,701.1,695.8z"/>
	<path class="st3" d="M459.3,594c0-2.3,0.6-4.3,1.6-6.1c-1.8-1.1-3.9-1.7-6.1-1.7c-7.6,0-13.8,7.1-13.8,15.9
		c0,8.8,6.2,15.9,13.8,15.9c6.9,0,12.5-5.8,13.6-13.4C463.3,604.6,459.3,599.8,459.3,594z"/>
</g>
<g>
	<path class="st28" d="M1189.8,1068.1h-80.5c-8.5,0-15.4-6.9-15.4-15.4V789.4c0-8.5,6.9-15.4,15.4-15.4h80.5
		c8.5,0,15.4,6.9,15.4,15.4v263.3C1205.1,1061.2,1198.3,1068.1,1189.8,1068.1z"/>
	<path class="st26" d="M1216.5,1068.1h-83.7c-7.6,0-13.7-6.2-13.7-13.7V787.8c0-7.6,6.2-13.7,13.7-13.7h83.7
		c7.6,0,13.7,6.2,13.7,13.7v266.6C1230.3,1061.9,1224.1,1068.1,1216.5,1068.1z"/>
	<g>
		<ellipse class="st28" cx="1175.6" cy="1008.6" rx="42.9" ry="49.6"/>
		<ellipse class="st29" cx="1175.6" cy="1008.6" rx="36.4" ry="42.1"/>
		<ellipse class="st28" cx="1175.6" cy="1008.6" rx="25.8" ry="29.9"/>
	</g>
	<g>
		<ellipse class="st28" cx="1175.6" cy="907.6" rx="32.1" ry="37.1"/>
		<ellipse class="st29" cx="1175.6" cy="907.6" rx="27.2" ry="31.5"/>
		<ellipse class="st28" cx="1175.6" cy="907.6" rx="19.3" ry="22.3"/>
	</g>
	<g>
		<ellipse class="st28" cx="1175.6" cy="819.3" rx="22.4" ry="25.9"/>
		<ellipse class="st29" cx="1175.6" cy="819.3" rx="19" ry="22"/>
		<ellipse class="st28" cx="1175.6" cy="819.3" rx="13.5" ry="15.6"/>
	</g>
</g>
<g>
	<path class="st28" d="M69.3,1068.1h80.5c8.5,0,15.4-6.9,15.4-15.4V789.4c0-8.5-6.9-15.4-15.4-15.4H69.3c-8.5,0-15.4,6.9-15.4,15.4
		v263.3C53.9,1061.2,60.8,1068.1,69.3,1068.1z"/>
	<path class="st26" d="M42.6,1068.1h83.7c7.6,0,13.7-6.2,13.7-13.7V787.8c0-7.6-6.2-13.7-13.7-13.7H42.6c-7.6,0-13.7,6.2-13.7,13.7
		v266.6C28.8,1061.9,35,1068.1,42.6,1068.1z"/>
	<g>
		<ellipse class="st28" cx="83.5" cy="1008.6" rx="42.9" ry="49.6"/>
		<ellipse class="st29" cx="83.5" cy="1008.6" rx="36.4" ry="42.1"/>
		<ellipse class="st28" cx="83.5" cy="1008.6" rx="25.8" ry="29.9"/>
	</g>
	<g>
		<ellipse class="st28" cx="83.5" cy="907.6" rx="32.1" ry="37.1"/>
		<ellipse class="st29" cx="83.5" cy="907.6" rx="27.2" ry="31.5"/>
		<ellipse class="st28" cx="83.5" cy="907.6" rx="19.3" ry="22.3"/>
	</g>
	<g>
		<ellipse class="st28" cx="83.5" cy="819.3" rx="22.4" ry="25.9"/>
		<ellipse class="st29" cx="83.5" cy="819.3" rx="19" ry="22"/>
		<ellipse class="st28" cx="83.5" cy="819.3" rx="13.5" ry="15.6"/>
	</g>
</g>
<g>
	<rect x="954.1" y="318.6" class="st30" width="451.7" height="34.7"/>
	<rect x="919.6" y="318.6" class="st1" width="414.4" height="34.7"/>
	<g>
		<rect x="1240.9" y="209.6" class="st2" width="87.6" height="108.9"/>
		<rect x="1250.6" y="219.4" class="st3" width="68.2" height="89.4"/>
		<ellipse class="st2" cx="1284.7" cy="257.6" rx="13.9" ry="17.2"/>
		<path class="st2" d="M1269.4,308.8h30.5v-15.7c0-8.4-6.8-15.3-15.3-15.3l0,0c-8.4,0-15.3,6.8-15.3,15.3V308.8z"/>
		<polygon class="st30" points="1328.5,233 1357.4,318.6 1331.9,318.6 1328.5,272.7 		"/>
	</g>
	<g>
		<polygon class="st2" points="1131.8,211.2 1144.3,221.5 1196,137.9 1183.6,127.6 		"/>
		<polygon class="st31" points="1137.3,223 1149.7,233.3 1201.5,149.8 1189,139.5 		"/>
		<rect x="978.3" y="186.4" class="st30" width="226.2" height="132.2"/>
		<rect x="1072.5" y="122.7" class="st30" width="23.4" height="133.6"/>
		<rect x="1115.1" y="109.7" class="st30" width="30.4" height="146.6"/>
		<rect x="1095.8" y="101.2" class="st32" width="19.3" height="155.1"/>
		<rect x="938.6" y="186.4" class="st2" width="209.5" height="132.2"/>
		<path class="st33" d="M1189.4,224.3h-18.9c-3.7,0-6.6-3.4-6.6-7.6l0,0c0-4.2,3-7.6,6.6-7.6h18.9c3.7,0,6.6,3.4,6.6,7.6l0,0
			C1196.1,220.9,1193.1,224.3,1189.4,224.3z"/>
	</g>
	<rect x="1153.5" y="341.3" class="st34" width="60.1" height="69.5"/>
	<polygon class="st3" points="1091.4,423.6 1039.3,388.8 1069.4,328.6 1121.4,363.4 	"/>
	<polygon class="st2" points="1338.7,402.8 1279.9,417.4 1267.3,349.4 1326.1,334.8 	"/>
</g>
<g>
	<polygon class="st35" points="240.7,688.6 235,690.1 222.1,622.4 227.8,620.9 	"/>
	<polygon class="st36" points="222.1,622.4 223.2,613.5 227.8,620.9 	"/>
	<polygon class="st37" points="250,688.6 244.3,690.1 231.4,622.4 237.2,620.9 	"/>
	<polygon class="st38" points="262.9,693.3 257.1,692 268.4,624 274.2,625.3 	"/>
	<polygon class="st26" points="233.6,684.5 228.5,681.1 258.5,621.1 263.6,624.5 	"/>
	<polygon class="st39" points="258.5,621.1 263.6,624.5 265.5,615.4 	"/>
	<polygon class="st36" points="268.4,624 274.2,625.3 273.2,617 	"/>
	<polygon class="st14" points="269,711.6 228.3,711.6 224.6,648.2 272.7,648.2 	"/>
</g>
<path class="st7" d="M892.3,657c-0.6,0-1.1,0-1.7,0.1v-6.7H845v61.2h45.7v-6.7c0.5,0.1,1.1,0.1,1.7,0.1c11.5,0,20.7-10.7,20.7-24
	C913.1,667.7,903.8,657,892.3,657z M892.3,696.3c-0.6,0-1.1,0-1.7-0.1v-30.4c0.5-0.1,1.1-0.1,1.7-0.1c7.3,0,13.2,6.9,13.2,15.3
	C905.6,689.4,899.7,696.3,892.3,696.3z"/>
</svg>
