<?xml version="1.0" encoding="utf-8"?>
<!-- Generator: Adobe Illustrator 22.1.0, SVG Export Plug-In . SVG Version: 6.00 Build 0)  -->
<svg version="1.1" xmlns="http://www.w3.org/2000/svg" xmlns:xlink="http://www.w3.org/1999/xlink" x="0px" y="0px"
	 viewBox="0 0 1920 120" style="enable-background:new 0 0 1920 120;" xml:space="preserve">
<style type="text/css">
	.st0{clip-path:url(#SVGID_2_);}
	.st1{fill:#FFFFFF;}
</style>
<g id="Layer_1">
</g>
<g id="Layer_2">
	<g>
		<defs>
			<rect id="SVGID_1_" width="1920" height="120"/>
		</defs>
		<clipPath id="SVGID_2_">
			<use xlink:href="#SVGID_1_"  style="overflow:visible;"/>
		</clipPath>
		<g class="st0">
			<path class="st1" d="M1951.1,147.9c5.6-14.5,15.1-20.2,12.4-30.4c-2.1-8.2-9.1-7.6-19.8-19.5c-14.1-15.7-12.1-27.9-20.2-29.5
				c-8.8-1.7-11.7,12.6-29.6,21c-6.4,3-12.3,4.2-17.5,4.6c-3.5-3-8.8-5.5-15.7-13.2c-14.1-15.7-12.1-27.9-20.2-29.5
				c-8.8-1.7-11.7,12.6-29.6,21c-18.9,8.9-33.2,1.3-37.4,9c-1.9,3.5-0.1,7.1,2.9,11.6c-5.2,3.8-10.3,13.2-23.5,19.4
				c-3.7,1.7-7.1,2.8-10.4,3.5c-2.6-1.9-5.5-4.4-8.8-8.1c-14.1-15.7-12.1-27.9-20.2-29.5c-8.8-1.7-11.7,12.6-29.6,21
				c-6.6,3.1-12.6,4.2-17.8,4.6c-3.1-5-9.4-6.2-18.4-16.2c-14.1-15.7-12.1-27.9-20.2-29.5c-8.8-1.7-11.7,12.6-29.6,21
				c-18.9,8.9-33.2,1.3-37.4,9c-0.4,0.7-0.6,1.3-0.7,2c-8.3-11.7-8-20.4-15.2-21.6c-9.5-1.6-12.9,12.7-32.5,21.5
				c-1.7,0.7-3.3,1.4-4.9,1.9c-9.2-12.9-8.6-22.4-15.6-23.8c-8.8-1.7-11.7,12.6-29.6,21c-18.9,8.9-33.2,1.3-37.4,9
				c-0.6,1-0.8,2.1-0.8,3.2c-8.7-12.6-8.3-21.8-15.2-23.2c-8.8-1.7-11.7,12.6-29.6,21c-9.3,4.4-17.5,4.8-23.9,5
				c-6-10.4-6.4-17.8-12.5-19c-3.2-0.6-5.6,0.9-8.2,3.4c2.2-10.7,6.7-17.4,2.5-21.9c-6.3-6.8-19.6,5.5-38.4,2
				c-27-5.1-38.8-37.9-45.1-34.9c-6.4,3,12.2,33.6-0.3,57c-3,5.7-7.4,10-12.3,13.5c-5.3-2.5-11.8-5.9-18-12.8
				c-14.1-15.5-10.9-31.4-19.5-33.2c-9.1-1.9-12.8,15.8-30.1,23.8c-15.7,7.3-32.9,2-44.4-1.4c-1.1-1.4-2.4-2.3-4.3-2.6
				c-1.6-0.3-3-0.1-4.4,0.5c-2-0.2-3.4,0-4,1.1c-0.3,0.6-0.3,1.2-0.1,2c-4.6,4.5-9.9,12.1-21.1,17.4c-14.3,6.7-25.9,4.1-32.6,5.6
				c-2.3-1.8-4.8-4.1-7.6-7.2c-14.1-15.7-12.1-27.9-20.2-29.5c-7.5-1.5-10.7,8.7-22.6,17c0.2-1.6,0.1-3.2-0.4-5
				c-2.1-8.2-9.1-7.6-19.8-19.5c-14.1-15.7-12.1-27.9-20.2-29.5c-8.8-1.7-11.7,12.6-29.6,21c-18.9,8.9-33.2,1.3-37.4,9
				c-4.5,8.1,11.4,16.9,14,35.8c0.1,0.6,0.1,1.2,0.2,1.8c-3.3-2.4-7.7-5.2-13-11.1c-14.1-15.7-12.1-27.9-20.2-29.5
				c-8.8-1.7-11.7,12.6-29.6,21c-5.7,2.7-11,3.9-15.7,4.4c-2.2-1.7-5.1-3.6-8.6-7.8c-9.2-10.8-8-19.1-13.2-20.2
				c-5.7-1.2-7.5,8.5-19,14.2c-12.2,6-21.5,0.7-24.2,5.9c-1.5,2.9,0.7,6,3.4,10.2c-2.9,1.4-6.1,2.8-9.5,4.2
				c-10.1-13.5-9.3-23.6-16.6-25.1c-8.8-1.7-11.7,12.6-29.6,21c-15.4,7.3-27.7,3.6-34.1,6.1c-0.5-0.2-1.1-0.3-1.6-0.5
				c-3.6-7.5-4.7-12.6-9.7-13.6c-4.4-0.9-7.3,2.3-11.4,6.8c-3.9-1-6.9-1.2-8.7,0c-2.3,1.4-1.1,3.8,1.7,7c-3,2.5-6.5,5.1-11.1,7.2
				c-13.6,6.4-24.8,4.3-31.6,5.4c-6.3-10.6-6.6-18.2-12.8-19.5c-8.8-1.7-11.7,12.6-29.6,21c-10.4,4.9-19.3,4.8-26,5
				c-3.5-3.2-9-5.5-16.2-13.6c-14.1-15.7-12.1-27.9-20.2-29.5c-8.8-1.7-11.7,12.6-29.6,21c-10.3,4.8-19.2,4.8-25.8,5
				c-0.5-16.9,8.1-26.8,2.6-32.4c-6.5-6.6-19.4,6.2-38.3,3.3c-27.1-4.2-40-36.6-46.2-33.4c-6.3,3.2,13.3,33.2,1.6,57
				c-8.1,16.5-27.7,22.8-38.6,27.5c-0.5-0.5-1-1.1-1.5-1.6c-14.1-15.7-12.1-27.9-20.2-29.5c-8.8-1.7-11.7,12.6-29.6,21
				c-16.4,7.7-29.3,3.1-35.2,6.6c-16-22.1-2.4-53.9-9.1-56c-6.8-2.2-14,32.9-39,41.6c-21.8,7.5-45-9-53.6-9.6
				c-7-11.3-7.1-19.4-13.6-20.7c-8.8-1.7-11.7,12.6-29.6,21c-5,2.4-9.7,3.6-14,4.2c-3.5-2.8-8.7-5.4-15.2-12.8
				C62.6,65.3,64.6,53.1,56.5,51.5c-8.8-1.7-11.7,12.6-29.6,21c-18.9,8.9-33.2,1.3-37.4,9c-4.5,8.1,11.4,16.9,14,35.8
				c3.7,27.2-23.7,48.7-18.9,53.8c4.9,5.1,28.1-22.2,54.2-17.7c13.5,2.3,23.4,12.3,30.7,21c-4.5,6.8-7.9,11.6-5.9,13.7
				c1.9,2,6.6-0.9,13.1-4.9c3.1,3.6,5.5,5.8,7.5,4.8c2-1,1.6-4.4,0.4-9.5c9.4-5.3,21-10.2,33.2-8.1c26.2,4.4,38.7,37.9,45.3,34.6
				c6.2-3.1-10.9-29.1-0.1-57c2.6-6.9,6.2-11.8,8.9-16.1c0.8,2.6,1.4,5.4,1.8,8.3c2.1,15.4-3.5,25,3.7,32.6
				c5.8,6.1,11.6,2.3,26.8,7.6c19.9,7,24,18.6,31.9,16.1c8.5-2.7,4.2-16.6,15.8-32.7c3.4-4.7,7.2-8.2,10.8-10.8
				c2.3,26.3-23.8,47-19.1,52c4.9,5.1,28.1-22.2,54.2-17.7c26.2,4.4,38.7,37.9,45.3,34.6c6.2-3.1-10.9-29.1-0.1-57
				c5.6-14.5,15.1-20.2,12.4-30.4c-1-3.9-3.1-5.8-6.1-8c10.4,0.9,23.5,3.3,35.1,12.3c12.3,9.5,15.1,20.2,25.6,20.6
				c8.4,0.3,9.9-6.6,24.4-13.4c10.5-5,18.6-5.6,24.4-6.4c-0.1,24.7-23.8,43.8-19.2,48.5c4.9,5.1,28.1-22.2,54.2-17.7
				c18.8,3.2,30.5,21.3,38.1,30.1c-1,2.1-1.3,3.7-0.3,4.7c1,1,2.7,0.7,5.1-0.3c0.9,0.5,1.7,0.6,2.5,0.2c0.8-0.4,1.2-1.2,1.3-2.2
				c10.1-6,27-18.5,45.3-15.4c7.5,1.3,13.8,4.9,19.2,9.4c0,0.5,0.2,1,0.5,1.4c0.4,0.5,1,0.7,1.8,0.6c12.2,11,19.3,25.5,23.8,23.2
				c4.3-2.2-2.6-15.3-3.6-32.5c7.4-0.6,21.4-4.7,38.5-7.4c22,8.1,33,36,39.1,32.9c4.5-2.3-3.4-16.7-3.8-35.2
				c4.7,0.2,9.5,0.7,14.3,1.5c23.4,3.9,32.1,12.8,49,8.8c0.6-0.1,1.2-0.3,1.8-0.5c6.3,7.6,10.6,13.9,13.7,12.4
				c3.1-1.6,0.4-8.9-1.8-19.3c4.3-3.8,9.2-8.7,19.9-15.2c10.2-6.2,19.4-10,27.1-12.7c-6.5,11.9-14.6,20.4-11.8,23.3
				c4.9,5.1,28.1-22.2,54.2-17.7c26.2,4.4,38.7,37.9,45.3,34.6c5.5-2.8-7.2-23.3-2.8-47.3c10.3-6.3,26.2-17.2,43.5-14.3
				c11.2,1.9,19.9,9.1,26.7,16.5c-5,19.6-21.8,34.2-17.9,38.3c4.9,5.1,28.1-22.2,54.2-17.7c16.6,2.8,27.7,17.2,35.3,26.6
				c0.1,0.4,0.2,0.8,0.5,1.1c0.2,0.2,0.5,0.4,0.8,0.5c3.8,4.6,6.6,7.5,8.8,6.4c2-1,1.5-4.6,0.3-9.8c10.2-6.2,26.6-17.8,44.3-14.8
				c26.2,4.4,38.7,37.9,45.3,34.6c5.1-2.6-5.7-20.9-3.4-42.9c9.1-4.8,20.9-9.5,34.8-8.4c15.5,1.1,23.8,8.5,32.7,3
				c7.2-4.4,4.6-10.9,12.9-24.6c3-5,6.2-8.8,9.1-11.8c7.2,2,14.8,5.2,21.8,11c12,9.9,14.4,20.7,24.9,21.4c1.7,0.1,3.1-0.1,4.5-0.5
				c-3.1,22-23,38.6-18.8,43c4.9,5.1,28.1-22.2,54.2-17.7c4.7,0.8,8.9,2.5,12.8,4.8c-1.5,2.7-2.1,4.8-1,5.9c1.3,1.3,3.8,0.5,7.3-1.5
				c13.7,11.2,21.5,27.7,26.2,25.4c4.7-2.4-4.1-18.1-3.8-37.9c7.4-3.2,15.8-5.2,24.4-3.7c26.2,4.4,38.7,37.9,45.3,34.6
				c4.2-2.1-2.4-14.9-3.6-31.7c10.3-6.4,25.2-15.6,41.3-12.9c0.4,0.1,0.8,0.2,1.2,0.2c-6.5,9.7-12.9,16.6-10.3,19.1
				c3.1,3,13-5.1,26.3-11.6c14.9,11.1,23.2,29.4,28.2,26.9c4.4-2.2-3-16.1-3.7-34.1c2.8-0.2,5.7-0.1,8.5,0.3
				c28.5,4.1,41.7,37.5,48.9,34.1c4.7-2.2-2.6-15.3-3.5-32.5c10.2-6.3,24.8-15,40.5-12.4c16.9,2.9,28.1,17.8,35.7,27.1
				c-3.4,5.2-5.5,8.9-3.9,10.6c1.7,1.7,5.5-0.3,10.7-3.5c1,0.6,2,0.8,2.8,0.4c0.9-0.5,1.3-1.5,1.4-2.9c10.2-6.2,24.2-14.2,39.3-11.7
				c9.4,1.6,17,6.9,23.3,13c-5.6,9-10.8,15.3-8.5,17.8c2.3,2.4,8.7-2.4,17.6-7.7c5.9,7.3,10,13,13,11.5c2.9-1.5,0.6-8.1-1.4-17.6
				c7.6-3.3,16.2-5.5,25.1-4c26.2,4.4,38.7,37.9,45.3,34.6c6.2-3.1-10.9-29.1-0.1-57c3-7.8,7.2-13.1,10-17.9
				c0.9,0.1,1.9,0.2,2.8,0.3c14.9,2.5,25.4,14.5,32.9,23.7c-3.5,5.4-5.8,9.2-4.1,11c1.6,1.7,5.3-0.2,10.5-3.3c2.4,2.6,4.4,4,6.1,3.2
				c1.7-0.9,1.6-3.5,0.9-7.4c9.9-5.9,22.9-12.5,36.8-10.2c26.2,4.4,38.7,37.9,45.3,34.6C1957.4,201.8,1940.3,175.9,1951.1,147.9z
				 M82.6,135.2c0.7,6.5-0.3,12.6-2.2,18.3C80.2,147.7,80.8,141.6,82.6,135.2z M538.3,190.1c-2.5-10.8-5.5-26.2,0.7-42.2
				c1.8-4.7,4-8.5,6.1-11.8c2.4,4.2,4.5,9.2,5.3,15.1C552.6,166.7,544.7,180.3,538.3,190.1z M1059.8,182.5c-1.8-9.9-2.5-22,2.3-34.5
				c2-5.3,4.6-9.4,6.9-13c1.2,2.8,2.1,5.9,2.5,9.4C1073.6,159.4,1066,172.7,1059.8,182.5z M1653.2,175c-2.1-10.3-3.5-23.5,1.8-37.1
				c0.7-1.7,1.4-3.3,2.1-4.8c1.5,3.3,2.7,7,3.3,11.2C1662.1,155.8,1658,166.3,1653.2,175z M1865.1,161.4c-1.2-9.1-1.3-19.6,2.9-30.5
				c0.4-0.9,0.7-1.8,1.1-2.7c0.6,1.9,1.1,3.9,1.3,6C1871.9,144.3,1869,153.5,1865.1,161.4z"/>
		</g>
	</g>
</g>
</svg>
