<?xml version="1.0" encoding="utf-8"?>
<!-- Generator: Adobe Illustrator 22.1.0, SVG Export Plug-In . SVG Version: 6.00 Build 0)  -->
<svg version="1.1" xmlns="http://www.w3.org/2000/svg" xmlns:xlink="http://www.w3.org/1999/xlink" x="0px" y="0px"
	 viewBox="0 0 1920 200" style="enable-background:new 0 0 1920 200;" xml:space="preserve">
<style type="text/css">
	.st0{clip-path:url(#SVGID_2_);}
	.st1{fill:#FFFFFF;}
</style>
<g id="Layer_2">
</g>
<g id="Layer_1">
	<g>
		<defs>
			
				<rect id="SVGID_1_" x="-3.5" y="-2.5" transform="matrix(-1 -9.523252e-04 9.523252e-04 -1 1915.9053 198.9123)" width="1923" height="203"/>
		</defs>
		<clipPath id="SVGID_2_">
			<use xlink:href="#SVGID_1_"  style="overflow:visible;"/>
		</clipPath>
		<g class="st0">
			<g>
				<polygon class="st1" points="1687.1,8.3 1775.8,61.4 1863.9,7.1 1847.6,120.9 1919.5,200.9 1820.8,218.2 1777.1,322 
					1732.4,218.8 1633.5,203 1704.6,121.9 				"/>
			</g>
			<g>
				<polygon class="st1" points="1627.1,45 1683.9,64.9 1740.5,44.2 1729.9,87.4 1775.9,117.6 1712.5,124.4 1684.4,163.8 
					1655.8,124.8 1592.4,118.9 1638.1,88 				"/>
			</g>
			<g>
				<polygon class="st1" points="515.8,121.1 557,147.6 598,120.5 590.4,177.4 623.9,217.5 577.9,226.1 557.7,278 536.8,226.4 
					490.9,218.4 523.9,177.9 				"/>
			</g>
			<g>
				<polygon class="st1" points="597.9,27.2 686.6,80.3 774.7,25.9 758.4,139.8 830.4,219.8 731.6,237.1 687.9,340.9 643.2,237.7 
					544.3,221.8 615.4,140.8 				"/>
			</g>
			<g>
				<polygon class="st1" points="1020,120.4 1058.4,156.2 1096.3,119.8 1089.4,196.3 1120.6,250.1 1078,261.6 1059.3,331.2 
					1039.8,261.8 997.1,251 1027.7,196.7 				"/>
			</g>
			<g>
				<polygon class="st1" points="1080.6,27.7 1169.3,80.7 1257.4,26.4 1241.1,140.2 1313.1,220.2 1214.3,237.5 1170.7,341.3 
					1125.9,238.2 1027,222.3 1098.1,141.3 				"/>
			</g>
			<g>
				<polygon class="st1" points="1269.2,122.7 1357.9,175.8 1446,121.5 1429.7,235.3 1501.6,315.3 1402.9,332.6 1359.2,436.4 
					1314.5,333.2 1215.5,317.4 1286.6,236.3 				"/>
			</g>
			<g>
				<polygon class="st1" points="1383.9,-0.2 1472.6,52.9 1560.7,-1.4 1544.4,112.4 1616.3,192.4 1517.6,209.7 1473.9,313.5 
					1429.2,210.4 1330.2,194.5 1401.3,113.4 				"/>
			</g>
			<g>
				<polygon class="st1" points="1526.8,64.4 1615.5,117.5 1703.6,63.1 1687.3,177 1759.3,257 1660.5,274.3 1616.8,378.1 
					1572.1,274.9 1473.2,259 1544.3,178 				"/>
			</g>
			<g>
				<polygon class="st1" points="-4.9,41.7 107.9,103.5 220,40.1 199.2,172.7 290.6,265.9 165,286.1 109.4,407 52.6,286.9 
					-73.2,268.5 17.3,174 				"/>
			</g>
			<g>
				<polygon class="st1" points="169.9,43.2 258.6,96.3 346.8,41.9 330.5,155.8 402.4,235.8 303.6,253.1 260,356.9 215.2,253.7 
					116.3,237.8 187.4,156.8 				"/>
			</g>
			<g>
				<polygon class="st1" points="292.7,13.2 381.4,66.3 469.5,11.9 453.2,125.8 525.1,205.8 426.4,223.1 382.7,326.9 338,223.7 
					239,207.8 310.2,126.8 				"/>
			</g>
			<g>
				<polygon class="st1" points="880.6,6.4 962.1,95.3 1072.1,70.4 1023.6,184.7 1079.7,295.9 968.3,277.7 892.9,371.2 872.5,245.6 
					769.9,192.3 868.7,132.9 				"/>
			</g>
			<polygon class="st1" points="1838.9,102.4 1893.2,175 1972.7,147.1 1933.2,249.4 1968.4,343 1889.7,333.5 1831.9,419.3 
				1822.8,311.1 1751.9,270.6 1825,213.2 			"/>
		</g>
	</g>
</g>
</svg>
