<?xml version="1.0" encoding="utf-8"?>
<!-- Generator: Adobe Illustrator 22.1.0, SVG Export Plug-In . SVG Version: 6.00 Build 0)  -->
<svg version="1.1" id="Layer_1" xmlns="http://www.w3.org/2000/svg" xmlns:xlink="http://www.w3.org/1999/xlink" x="0px" y="0px"
	 viewBox="0 0 240 100" style="enable-background:new 0 0 240 100;" xml:space="preserve">
<style type="text/css">
	.st0{fill:#FFFFFF;}
</style>
<path class="st0" d="M237,0H3.5c-2.4,46.4-4.1,97.6,0,98c1.3,0.1,5-4.9,3.9-7.8c-0.5-1.4-1.9-1.7-1.9-2.9c0-1.7,2.6-3.6,4.9-3.9
	c3.3-0.4,7,2.5,9.2,7.4c-0.5,0.2-0.9,0.3-1.4,0.5c-1-0.2-5.4-1.1-5.8,0c-0.4,1.1,2.3,4.2,4.9,3.9c3.1-0.3,3.6-5.6,6.8-5.9
	c1.9-0.2,3.7,1.7,4.9,2.9c2.8,2.9,3,6,3.9,5.9c1-0.1,0.4-4,2.9-7.8c1.6-2.4,4.3-4.6,5.8-3.9c0.9,0.4,0.7,1.4,1.9,3.9
	c1.2,2.3,1.8,3.6,2.9,3.9c2.6,0.8,7.4-3.9,9.7-8.8c0.7-1.5,1.1-2.9,1.9-2.9c1.1,0,2.5,2.4,1.9,3.9c-0.5,1.3-2,1.3-1.9,2
	c0.1,1,4,2.5,5.8,1c1.3-1.1,0.6-3.1,1.9-3.9c1.1-0.7,3.2-0.4,3.6,0.8c0.4,0.9-0.2,2.4-1.7,3.2c-4.5,3-5.1,4.3-4.9,4.9
	c0.5,1.3,5.8,1.5,9.7-1c4.6-2.9,5.8-8.2,6.8-7.8c1.3,0.4-0.9,9,1,9.8c1.3,0.5,3.8-3.4,10.7-8.8c1.4-1.1,3.1-2.3,4.9-2
	c1.4,0.3,2.4,1.3,3.9,2.9c1.6,1.7,2.7,3.6,2.9,3.9c1.2,2,1.3,2.8,1.9,2.9c0.7,0.2,1.9-0.4,3.9-3.9l3.9-4.9c3.1-1.4,6.4-2.4,7.8-1
	c1.6,1.6-0.2,5.3,1,5.9c1.5,0.8,5.8-5,12.6-8.8c0.7-0.4,2.1-1.1,3.9-1c1.8,0.1,3.7,1.1,4.9,2.9c0.2,0.3,2,3.2,1,4.9
	c-1.7,2.9-9.6-0.4-10.7,2c-0.5,1.1,0.6,3,1.9,3.9c0.7,0.5,1.9,1,9.7-1c4.9-1.3,6-1.9,6.8-2.9c1.4-1.8,1.4-3.9,1.9-3.9
	c0.9,0,0.3,4.8,2.9,6.9c2.2,1.7,6.5,1.1,7.8-1c1.2-2-1.1-4,0-6.9c0.9-2.3,3.6-4.3,5.8-3.9c4.5,0.7,5.1,10.8,7.8,10.8
	c3.2-0.1,4.9-15.3,7.5-15.1c0.5,0,1,0.7,1.3,1.4c1.1,2.4,2.8,4.8,5,5c1.3,0.1,2-0.6,2.8-0.1c1.9,1.2-0.3,7.2,1,7.8
	c1.2,0.6,3.4-4.3,5.8-3.9c2.9,0.4,3.4,7.7,5.8,7.8c2.2,0.1,2.9-5.5,5.8-5.9c3.1-0.4,5,5.8,7.7,5.3c2.8-0.5,3.4-7.4,4.9-7.3
	c1.2,0.1,0.8,4,3.9,6.9c0.9,0.8,1.9,1.4,2.9,2c2,1.1,4.4,2,4.9,2C239,97.8,240.3,79.7,237,0z"/>
</svg>
