<?xml version="1.0" encoding="utf-8"?>
<!-- Generator: Adobe Illustrator 22.1.0, SVG Export Plug-In . SVG Version: 6.00 Build 0)  -->
<svg version="1.1" id="Layer_1" xmlns="http://www.w3.org/2000/svg" xmlns:xlink="http://www.w3.org/1999/xlink" x="0px" y="0px"
	 viewBox="0 0 60 100" style="enable-background:new 0 0 60 100;" xml:space="preserve">
<style type="text/css">
	.st0{fill:#FFFFFF;}
</style>
<path class="st0" d="M1.7,2h55.9c0.3,16.1,0.7,32.2,1,48.3c0.8,35,0.3,48.6-1,48.7c-0.5,0-1.3-2-2.8-2c-1.5,0.1-2.3,2.2-2.8,2
	c-0.9-0.4,1.6-6.7,0-7.8c-0.5-0.4-1.6,0.1-3.7,1c-2.6,1.1-2.8,1.8-2.8,2c-0.1,0.9,1.1,1.4,0.9,2c-0.3,1-4-0.3-8.4,1
	c-2.7,0.8-4.5,2.2-4.7,2c-0.3-0.5,5-4,4.3-6.1c-0.1-0.4-0.4-0.6-0.6-0.7c-0.3-0.4-1.2-1.5-2.8-2c-1.8-0.5-3.5,0.1-4.7,1
	c-0.4,0.3-0.6,0.6-0.9,1c-1.9,2.3-1.7,3.7-2.8,4.9c-1.4,1.7-4.5,2.4-6.5,1c-1.1-0.8-2-2.4-1.9-3.9c0.3-2.4,3.1-3.8,2.7-4.6
	c-0.1-0.3-0.5-0.3-0.8-0.3c-0.5-0.1-1.6-0.3-2.8,0c-0.6,0.2-2.2,0.6-2.8,2c-0.4,0.8,0,1.2,0,2.9c0,1.7,0,3.1-0.9,3.9
	c-1,0.9-2.7,0.6-3.7,0c-0.7-0.4-0.7-0.7-1.9-2c-0.3-0.3-2.3-2.3-2.8-2c-0.3,0.2,0.2,1,0,2c-0.3,1.2-1.5,2-1.9,2
	c-1.2-0.1-2-11.4-1.5-47.4C1.4,34.4,1.5,18.2,1.7,2z"/>
</svg>
