<?xml version="1.0" encoding="utf-8"?>
<!-- Generator: Adobe Illustrator 16.0.0, SVG Export Plug-In . SVG Version: 6.00 Build 0)  -->
<!DOCTYPE svg PUBLIC "-//W3C//DTD SVG 1.1//EN" "http://www.w3.org/Graphics/SVG/1.1/DTD/svg11.dtd">
<svg version="1.1" id="Layer" xmlns="http://www.w3.org/2000/svg" xmlns:xlink="http://www.w3.org/1999/xlink" x="0px" y="0px"
	 width="335.986px" height="235.189px" viewBox="0 0 335.986 235.189" enable-background="new 0 0 335.986 235.189"
	 xml:space="preserve">
<rect x="0.001" fill="#FFFFFF" width="335.984" height="235.189"/>
<g>
	<path fill="#FFE4B9" d="M23.71,123.416c0,31-8.246,64.924,13.32,90.802c8.559,8.762,180.271,8.957,258.691-4.475
		c3-1,13.975-5.667,13.975-10.667c3.377-19.837,3.688-45.155,5.152-64.786V36.143c0-9.155-7.422-16.577-16.578-16.577L38.288,14.791
		c-5.361,0-10.115,2.557-13.145,6.505C21.487,55.135,24.435,90.063,23.71,123.416z"/>
	<g>
		<path fill="#FFE4B9" d="M318.888,95.641c3.855-21.373,0.312-53.774-9.191-71.508c7.146,5.394,9.896,20.02,12.382,27.471
			c0.712,2.133,0.827,4.709,1.358,6.871c0.395,1.61,0.484,3.253,0.534,4.89C324.265,72.965,321.229,86.196,318.888,95.641"/>
	</g>
	<g>
		<g>
			<path fill="#FFE4B9" d="M317.03,123.441c0.654,1.156,1.309,2.312,1.963,3.469c0.146,0.26,0.31,0.534,0.58,0.658
				c0.434,0.196,0.97-0.069,1.406,0.118l0.988-0.489c0.049-2.656,0.047-5.312-0.008-7.969c-0.002-0.133-0.01-0.275-0.094-0.377
				c-0.154-0.185-0.449-0.116-0.674-0.028c-1.232,0.481-2.424,1.069-3.556,1.755c-0.428,0.26-0.875,0.567-1.04,1.039
				C316.386,122.228,316.713,122.88,317.03,123.441z"/>
		</g>
		<g>
			<path fill="#FFE4B9" d="M324.644,127.037c0.619-0.272,1.229-0.564,1.829-0.875c0.661-0.341,0.696-1.266,0.065-1.662
				c-0.499-0.314-1.05-0.566-1.589-0.809c-0.202-0.091-0.435-0.184-0.64-0.098c-0.323,0.133-0.34,0.578-0.304,0.926
				c0.082,0.781,0.163,1.562,0.245,2.345L324.644,127.037z"/>
		</g>
		<g>
			<path fill="#FFE4B9" d="M320.493,131.475c0.279,0.283,0.559,0.564,0.839,0.848l0.191-0.115c0.63-0.676,1.296-1.316,1.995-1.92
				c-0.305-0.148-0.609-0.295-0.915-0.442c-0.597,0.62-1.546,0.812-2.12,1.453c-0.021,0.023-0.043,0.051-0.045,0.083
				C320.438,131.418,320.466,131.449,320.493,131.475z"/>
		</g>
	</g>
	<g>
		<path fill="#FFE4B9" d="M314.034,189.518c1.158-10.856,2.316-21.712,3.475-32.568c-0.13,3.588,1.199,7.07,1.465,10.65
			c0.543,7.301-3.318,14.162-4.493,21.389"/>
	</g>
	<g>
		<path fill="#FFE4B9" d="M262.767,15.454c-20.303-0.129-40.602-0.258-60.903-0.386c6.677-0.21,12.979-1.862,19.592-2.465
			c13.486-1.229,26.709,1.968,40.272,2.456"/>
	</g>
	<g>
		<path fill="#FFE4B9" d="M301.994,206.668c-5.403,8.84-57.521,16.306-61.251,16.943c-0.188,0.031-0.375,0.049-0.565,0.049
			c-2.647,0.007-23.166,0.02-29.909-1.123c25.021-1.428,43.696-3.616,64.904-9.472"/>
	</g>
	<g>
		<path fill="#FFE4B9" d="M38.989,215.164c-13.262-9.919-16.654-28.537-20.275-56.315C14.308,180.145,25.224,211.268,38.989,215.164
			z"/>
	</g>
	<g>
		<path fill="#FFE4B9" d="M25.144,21.296c-5.975,9.728-7.055,33.493-7.801,39.947c-0.154,1.345-0.193,2.707-0.117,4.074
			c0.195,3.477,0.674,10.371,1.559,13.961c0.037-17.453,2.809-33.144,6.359-47.792"/>
	</g>
	<g>
		<g>
			<path fill="#FFE4B9" d="M16.188,102.074L16.188,102.074c0.439,0.164,0.936-0.029,1.145-0.448
				c1.051-2.101,2.012-4.245,2.885-6.426c0.066-0.167,0.133-0.35,0.084-0.522c-0.039-0.142-0.15-0.251-0.258-0.352
				c-0.754-0.705-1.547-1.371-2.371-1.992c-0.494-0.372-1.209-0.071-1.324,0.536c-0.527,2.748-0.414,5.409-0.746,8.229
				C15.554,101.521,15.79,101.926,16.188,102.074z"/>
		</g>
		<g>
			<path fill="#FFE4B9" d="M203.62,225.346c-1.11,0.154-2.221,0.31-3.331,0.464c-0.071,0.01-0.159,0.013-0.195-0.05
				c-0.028-0.047-0.009-0.107,0.012-0.158c0.41-1.031,1.006-1.99,1.749-2.814c0.053-0.059,0.111-0.119,0.188-0.137
				c0.078-0.019,0.158,0.012,0.232,0.041c0.836,0.33,1.672,0.66,2.509,0.99c0.036,0.014,0.075,0.029,0.101,0.061
				c0.056,0.068,0.02,0.17-0.021,0.249c-0.248,0.489-0.566,0.942-0.941,1.344"/>
		</g>
		<g>
			<path fill="#FFE4B9" d="M15.378,109.315c1.162-0.592,2.238-1.352,3.186-2.247c0.119-0.111,0.244-0.272,0.176-0.42
				c-0.033-0.07-0.104-0.114-0.172-0.152c-1.107-0.641-2.385-0.986-3.664-0.993c-0.17-0.001-0.344,0.006-0.496,0.08
				c-0.258,0.128-0.391,0.435-0.393,0.723c-0.004,0.289,0.1,0.567,0.199,0.838c0.258,0.688,0.514,1.375,0.771,2.062"/>
		</g>
	</g>
	<g>
		<path fill="#FFE4B9" d="M16.028,73.922c-0.094-1.405-0.188-2.811-0.283-4.215c-0.674,0.394-1.35,0.788-2.025,1.182
			c0.512,1.154,1.021,2.308,1.533,3.462"/>
	</g>
	<g>
		<path fill="#FFE4B9" d="M19.747,140.955c-0.689-8.402-0.279-17.115,0.133-25.639c-1.156,5.734-2.314,11.469-3.473,17.202
			c-0.027,0.133-0.055,0.274-0.051,0.423c0.006,0.21,0.068,0.373,0.129,0.516C17.677,136.264,18.556,138.148,19.747,140.955"/>
	</g>
</g>
<polyline fill="#68BE9F" points="42.956,40.005 52.962,189.225 51.149,191.186 280.83,191.186 278.161,188.995 295.722,34.444 "/>
<polygon fill="#E6E7D9" points="283.873,193.605 278.161,189.064 279.03,179.582 52.207,179.582 52.962,189.286 48.843,193.605 "/>
<polygon fill="#D7BDAF" points="278.17,188.887 52.975,188.887 52.962,189.172 34.83,202.801 302.368,202.801 278.161,189.014 "/>
<g>
	<linearGradient id="SVGID_1_" gradientUnits="userSpaceOnUse" x1="176.6504" y1="95.2656" x2="269.0723" y2="95.2656">
		<stop  offset="0" style="stop-color:#FFFFFF"/>
		<stop  offset="1" style="stop-color:#C4E6F2"/>
	</linearGradient>
	<rect x="176.65" y="54.634" fill="url(#SVGID_1_)" width="92.422" height="81.264"/>
	<path fill="#FFFFFF" d="M228.904,72.828c-0.046-1.505-1.287-2.705-2.8-2.69c-0.036,0-0.07,0.002-0.106,0.003
		c-0.669-1.092-1.874-1.819-3.247-1.819c-1.692,0-3.123,1.101-3.623,2.624c-1.014,0.029-1.827,0.861-1.827,1.883H228.904z"/>
	<path opacity="0.5" fill="#FFFFFF" d="M265.88,69.956c-0.223-3.231-2.913-5.785-6.2-5.785c-0.603,0-1.183,0.088-1.733,0.247
		c-1.138-1.469-2.916-2.416-4.917-2.416c-1.254,0-2.421,0.374-3.398,1.013c-1.39-1.162-3.179-1.863-5.13-1.863
		c-3.554,0-6.566,2.316-7.615,5.519c-1.905,0.057-3.471,1.456-3.784,3.286H265.88z"/>
	<defs>
		<filter id="Adobe_OpacityMaskFilter" filterUnits="userSpaceOnUse" x="178.695" y="61.333" width="31.439" height="8.442">
			<feFlood  style="flood-color:white;flood-opacity:1" result="back"/>
			<feBlend  in="SourceGraphic" in2="back" mode="normal"/>
		</filter>
	</defs>
	<mask maskUnits="userSpaceOnUse" x="178.695" y="61.333" width="31.439" height="8.442" id="SVGID_2_">
		<g filter="url(#Adobe_OpacityMaskFilter)">
			<defs>
				<filter id="Adobe_OpacityMaskFilter_1_" filterUnits="userSpaceOnUse" x="178.695" y="61.333" width="31.439" height="8.442">
					<feFlood  style="flood-color:white;flood-opacity:1" result="back"/>
					<feBlend  in="SourceGraphic" in2="back" mode="normal"/>
				</filter>
			</defs>
			<mask maskUnits="userSpaceOnUse" x="178.695" y="61.333" width="31.439" height="8.442" id="SVGID_2_">
				<g filter="url(#Adobe_OpacityMaskFilter_1_)">
				</g>
			</mask>
			<linearGradient id="SVGID_3_" gradientUnits="userSpaceOnUse" x1="178.6953" y1="65.5542" x2="210.1348" y2="65.5542">
				<stop  offset="0" style="stop-color:#808080"/>
				<stop  offset="1" style="stop-color:#FFFFFF"/>
			</linearGradient>
			<path mask="url(#SVGID_2_)" fill="url(#SVGID_3_)" d="M210.135,69.775c-0.214-3.099-2.794-5.547-5.946-5.547
				c-0.578,0-1.136,0.082-1.663,0.236c-1.09-1.409-2.797-2.315-4.717-2.315c-1.202,0-2.32,0.357-3.26,0.969
				c-1.332-1.113-3.047-1.785-4.92-1.785c-3.409,0-6.298,2.219-7.303,5.292c-1.827,0.053-3.33,1.395-3.631,3.15H210.135z"/>
		</g>
	</mask>
	<linearGradient id="SVGID_4_" gradientUnits="userSpaceOnUse" x1="178.6953" y1="65.5542" x2="210.1348" y2="65.5542">
		<stop  offset="0" style="stop-color:#FFFFFF"/>
		<stop  offset="1" style="stop-color:#FFFFFF"/>
	</linearGradient>
	<path fill="url(#SVGID_4_)" d="M210.135,69.775c-0.214-3.099-2.794-5.547-5.946-5.547c-0.578,0-1.136,0.082-1.663,0.236
		c-1.09-1.409-2.797-2.315-4.717-2.315c-1.202,0-2.32,0.357-3.26,0.969c-1.332-1.113-3.047-1.785-4.92-1.785
		c-3.409,0-6.298,2.219-7.303,5.292c-1.827,0.053-3.33,1.395-3.631,3.15H210.135z"/>
	<g>
		<path fill-rule="evenodd" clip-rule="evenodd" fill="#37474F" d="M267.524,87.304c-0.714-0.049-1.053-0.293-1.646-0.411
			c-0.669-0.13-1.202,0.161-1.581,0.316c-0.083-0.118-0.204-0.189-0.337-0.189c-0.132-0.001-0.249,0.065-0.333,0.173
			c-0.378-0.155-0.923-0.482-1.616-0.359c-0.595,0.105-0.937,0.345-1.654,0.381c-0.081,0.004-0.148,0.005-0.148,0.005
			s0.067,0.016,0.148,0.031c0.256,0.041,0.492,0.06,0.771,0.046c0.294-0.012,0.574-0.061,0.879-0.044
			c0.355,0.022,0.6,0.126,0.789,0.222c0.302,0.152,0.527,0.321,0.777,0.483c0.122,0.052,0.45,0.157,0.8-0.012
			c0.226-0.146,0.438-0.292,0.713-0.426c0.189-0.091,0.435-0.191,0.789-0.207c0.305-0.01,0.586,0.042,0.88,0.06
			c0.279,0.019,0.517,0.004,0.77-0.034c0.083-0.011,0.152-0.025,0.152-0.025S267.606,87.31,267.524,87.304z"/>
		<path fill-rule="evenodd" clip-rule="evenodd" fill="#37474F" d="M210.381,69.833c-0.4-0.029-0.589-0.164-0.921-0.229
			c-0.373-0.074-0.671,0.09-0.882,0.175c-0.048-0.065-0.114-0.104-0.189-0.104c-0.07-0.003-0.137,0.034-0.185,0.095
			c-0.211-0.086-0.516-0.268-0.903-0.199c-0.331,0.058-0.522,0.191-0.923,0.212c-0.044,0.002-0.081,0.002-0.081,0.002
			s0.036,0.009,0.081,0.018c0.144,0.023,0.275,0.033,0.432,0.025c0.164-0.006,0.321-0.033,0.49-0.024
			c0.198,0.013,0.335,0.071,0.44,0.124c0.168,0.084,0.294,0.18,0.435,0.271c0.066,0.028,0.25,0.088,0.445-0.008
			c0.125-0.08,0.245-0.163,0.398-0.235c0.105-0.052,0.242-0.108,0.44-0.118c0.17-0.004,0.328,0.024,0.489,0.033
			c0.157,0.012,0.289,0.003,0.433-0.018c0.044-0.007,0.083-0.016,0.083-0.016S210.425,69.835,210.381,69.833z"/>
		<path fill-rule="evenodd" clip-rule="evenodd" fill="#37474F" d="M184.306,59.613c-0.398-0.026-0.588-0.164-0.919-0.23
			c-0.374-0.072-0.673,0.091-0.882,0.176c-0.048-0.064-0.114-0.104-0.188-0.105c-0.073,0-0.139,0.037-0.187,0.098
			c-0.211-0.087-0.515-0.269-0.902-0.201c-0.331,0.06-0.522,0.193-0.922,0.214c-0.045,0.002-0.084,0.002-0.084,0.002
			s0.038,0.009,0.084,0.018c0.142,0.022,0.273,0.032,0.43,0.025c0.163-0.008,0.321-0.033,0.49-0.024
			c0.199,0.013,0.335,0.07,0.44,0.123c0.169,0.085,0.295,0.18,0.435,0.271c0.067,0.028,0.251,0.088,0.446-0.008
			c0.126-0.081,0.245-0.162,0.397-0.236c0.105-0.051,0.243-0.107,0.441-0.116c0.169-0.007,0.326,0.024,0.49,0.033
			c0.156,0.011,0.288,0.003,0.43-0.018c0.047-0.008,0.084-0.016,0.084-0.016S184.353,59.616,184.306,59.613z"/>
		<path fill-rule="evenodd" clip-rule="evenodd" fill="#37474F" d="M200.059,77.987c-0.582-0.043-0.857-0.24-1.339-0.336
			c-0.544-0.106-0.979,0.131-1.285,0.256c-0.068-0.095-0.166-0.153-0.274-0.153c-0.105-0.001-0.202,0.053-0.271,0.142
			c-0.308-0.127-0.75-0.393-1.314-0.293c-0.483,0.086-0.763,0.28-1.344,0.309c-0.066,0.005-0.121,0.005-0.121,0.005
			s0.055,0.012,0.121,0.026c0.207,0.032,0.398,0.047,0.624,0.035c0.241-0.009,0.47-0.047,0.717-0.034
			c0.289,0.018,0.487,0.103,0.641,0.181c0.246,0.124,0.43,0.261,0.634,0.393c0.099,0.042,0.364,0.128,0.65-0.01
			c0.183-0.118,0.355-0.236,0.579-0.346c0.153-0.074,0.353-0.155,0.642-0.169c0.248-0.009,0.477,0.034,0.715,0.049
			c0.228,0.015,0.419,0.003,0.626-0.026c0.067-0.012,0.123-0.022,0.123-0.022S200.125,77.99,200.059,77.987z"/>
	</g>
	<g id="house_2_">
		<defs>
			<rect id="SVGID_5_" x="176.65" y="82.415" width="61.834" height="53.486"/>
		</defs>
		<clipPath id="SVGID_6_">
			<use xlink:href="#SVGID_5_"  overflow="visible"/>
		</clipPath>
		<rect x="176.65" y="85.097" clip-path="url(#SVGID_6_)" fill="#ED696C" width="60.25" height="50.805"/>
		<g clip-path="url(#SVGID_6_)">
			<g>
				<rect x="183.328" y="89.292" fill="#D0EBFC" width="11.434" height="11.436"/>
			</g>
			<g>
				<rect x="182.043" y="100.436" fill="#818282" width="13.916" height="1.714"/>
			</g>
			<path fill="#373A83" d="M183.069,89.035v11.948h11.948V89.035H183.069z M194.505,89.549v5.204h-10.92v-5.204H194.505z
				 M183.585,100.469v-5.202h10.92v5.202H183.585z"/>
		</g>
		<g clip-path="url(#SVGID_6_)">
			<g>
				<rect x="201.699" y="89.292" fill="#D0EBFC" width="11.434" height="11.436"/>
			</g>
			<g>
				<rect x="200.414" y="100.436" fill="#818282" width="13.919" height="1.714"/>
			</g>
			<path fill="#373A83" d="M201.441,89.035v11.948h11.949V89.035H201.441z M212.877,89.549v5.204h-10.922v-5.204H212.877z
				 M201.955,100.469v-5.202h10.922v5.202H201.955z"/>
		</g>
		<g clip-path="url(#SVGID_6_)">
			<g>
				<rect x="220.07" y="89.292" fill="#D0EBFC" width="11.436" height="11.436"/>
			</g>
			<g>
				<rect x="218.786" y="100.436" fill="#818282" width="13.918" height="1.714"/>
			</g>
			<path fill="#373A83" d="M219.813,89.035v11.948h11.948V89.035H219.813z M231.248,89.549v5.204h-10.92v-5.204H231.248z
				 M220.328,100.469v-5.202h10.92v5.202H220.328z"/>
		</g>
		<g clip-path="url(#SVGID_6_)">
			<g>
				<rect x="183.328" y="110.756" fill="#D0EBFC" width="11.434" height="11.434"/>
			</g>
			<g>
				<rect x="182.043" y="121.898" fill="#818282" width="13.916" height="1.713"/>
			</g>
			<path fill="#373A83" d="M183.069,110.499v11.947h11.948v-11.947H183.069z M194.505,111.013v5.203h-10.92v-5.203H194.505z
				 M183.585,121.933v-5.203h10.92v5.203H183.585z"/>
		</g>
		<g clip-path="url(#SVGID_6_)">
			<g>
				<rect x="201.699" y="110.756" fill="#D0EBFC" width="11.434" height="11.434"/>
			</g>
			<g>
				<rect x="200.414" y="121.898" fill="#818282" width="13.919" height="1.713"/>
			</g>
			<path fill="#373A83" d="M201.441,110.499v11.947h11.949v-11.947H201.441z M212.877,111.013v5.203h-10.922v-5.203H212.877z
				 M201.955,121.933v-5.203h10.922v5.203H201.955z"/>
		</g>
		<g clip-path="url(#SVGID_6_)">
			<g>
				<rect x="220.07" y="110.756" fill="#D0EBFC" width="11.436" height="11.434"/>
			</g>
			<g>
				<rect x="218.786" y="121.898" fill="#818282" width="13.918" height="1.713"/>
			</g>
			<path fill="#373A83" d="M219.813,110.499v11.947h11.948v-11.947H219.813z M231.248,111.013v5.203h-10.92v-5.203H231.248z
				 M220.328,121.933v-5.203h10.92v5.203H220.328z"/>
		</g>
		<rect x="176.65" y="104.897" clip-path="url(#SVGID_6_)" fill="#E0CFCF" width="60.484" height="3.066"/>
		<rect x="176.65" y="82.885" clip-path="url(#SVGID_6_)" fill="#E0CFCF" width="60.484" height="3.067"/>
		<rect x="176.65" y="104.384" clip-path="url(#SVGID_6_)" fill="#EBEBEA" width="61.834" height="2.68"/>
		<rect x="176.65" y="126.396" clip-path="url(#SVGID_6_)" fill="#E0CFCF" width="60.484" height="3.067"/>
		<rect x="176.65" y="125.883" clip-path="url(#SVGID_6_)" fill="#EBEBEA" width="61.834" height="2.68"/>
		<rect x="176.65" y="82.415" clip-path="url(#SVGID_6_)" fill="#EBEBEA" width="61.834" height="2.682"/>
	</g>
	<g id="house_1_">
		<g id="XMLID_123_">
			<rect id="XMLID_168_" x="235.68" y="76.404" fill="#F29077" width="33.362" height="59.349"/>
			<g id="XMLID_85_">
				<rect id="XMLID_86_" x="238.988" y="79.598" fill="#C8D9F1" width="4.126" height="9.663"/>
				<rect id="XMLID_87_" x="246.53" y="79.598" fill="#C8D9F1" width="4.124" height="9.663"/>
				<rect id="XMLID_90_" x="254.069" y="79.598" fill="#C8D9F1" width="4.125" height="9.663"/>
				<rect id="XMLID_91_" x="261.609" y="79.598" fill="#C8D9F1" width="4.124" height="9.663"/>
			</g>
			<rect id="XMLID_92_" x="234.736" y="90.855" fill="#818282" width="34.306" height="2.627"/>
			<rect id="XMLID_37_" x="234.736" y="74.155" fill="#818282" width="34.306" height="2.629"/>
			<g id="XMLID_97_">
				<rect id="XMLID_103_" x="238.988" y="95.751" fill="#C8D9F1" width="4.126" height="9.663"/>
				<rect id="XMLID_102_" x="246.53" y="95.751" fill="#C8D9F1" width="4.124" height="9.663"/>
				<rect id="XMLID_100_" x="254.069" y="95.751" fill="#C8D9F1" width="4.125" height="9.663"/>
				<rect id="XMLID_98_" x="261.609" y="95.751" fill="#C8D9F1" width="4.124" height="9.663"/>
			</g>
			<rect id="XMLID_96_" x="234.736" y="107.009" fill="#818282" width="34.306" height="2.627"/>
			<g id="XMLID_107_">
				<rect id="XMLID_121_" x="238.988" y="111.905" fill="#C8D9F1" width="4.126" height="9.662"/>
				<rect id="XMLID_120_" x="246.53" y="111.905" fill="#C8D9F1" width="4.124" height="9.662"/>
				<rect id="XMLID_115_" x="254.069" y="111.905" fill="#C8D9F1" width="4.125" height="9.662"/>
				<rect id="XMLID_111_" x="261.609" y="111.905" fill="#C8D9F1" width="4.124" height="9.662"/>
			</g>
			<g id="XMLID_32_">
				<rect id="XMLID_36_" x="238.988" y="127.819" fill="#C8D9F1" width="4.126" height="8.011"/>
				<rect id="XMLID_35_" x="246.53" y="127.819" fill="#C8D9F1" width="4.124" height="8.011"/>
				<rect id="XMLID_34_" x="254.069" y="127.819" fill="#C8D9F1" width="4.125" height="8.011"/>
				<rect id="XMLID_33_" x="261.609" y="127.819" fill="#C8D9F1" width="4.124" height="8.011"/>
			</g>
			<rect id="XMLID_106_" x="234.736" y="123.161" fill="#818282" width="34.306" height="2.629"/>
		</g>
		<g>
			<g>
				<rect x="239.488" y="100.736" fill="#FFFFFF" width="1.328" height="4.151"/>
				<rect x="241.286" y="100.736" fill="#FFFFFF" width="1.327" height="4.151"/>
			</g>
			<g>
				<rect x="239.488" y="96.216" fill="#FFFFFF" width="1.328" height="4.111"/>
				<rect x="241.286" y="96.216" fill="#FFFFFF" width="1.327" height="4.111"/>
			</g>
		</g>
		<g>
			<g>
				<rect x="247.029" y="100.736" fill="#FFFFFF" width="1.327" height="4.151"/>
				<rect x="248.826" y="100.736" fill="#FFFFFF" width="1.328" height="4.151"/>
			</g>
			<g>
				<rect x="247.029" y="96.216" fill="#FFFFFF" width="1.327" height="4.111"/>
				<rect x="248.826" y="96.216" fill="#FFFFFF" width="1.328" height="4.111"/>
			</g>
		</g>
		<g>
			<g>
				<rect x="254.568" y="100.736" fill="#FFFFFF" width="1.329" height="4.151"/>
				<rect x="256.366" y="100.736" fill="#FFFFFF" width="1.327" height="4.151"/>
			</g>
			<g>
				<rect x="254.568" y="96.216" fill="#FFFFFF" width="1.329" height="4.111"/>
				<rect x="256.366" y="96.216" fill="#FFFFFF" width="1.327" height="4.111"/>
			</g>
		</g>
		<g>
			<g>
				<rect x="262.11" y="100.736" fill="#FFFFFF" width="1.327" height="4.151"/>
				<rect x="263.907" y="100.736" fill="#FFFFFF" width="1.328" height="4.151"/>
			</g>
			<g>
				<rect x="262.11" y="96.216" fill="#FFFFFF" width="1.327" height="4.111"/>
				<rect x="263.907" y="96.216" fill="#FFFFFF" width="1.328" height="4.111"/>
			</g>
		</g>
		<g>
			<g>
				<rect x="239.488" y="84.615" fill="#FFFFFF" width="1.328" height="4.15"/>
				<rect x="241.286" y="84.615" fill="#FFFFFF" width="1.327" height="4.15"/>
			</g>
			<g>
				<rect x="239.488" y="80.093" fill="#FFFFFF" width="1.328" height="4.114"/>
				<rect x="241.286" y="80.093" fill="#FFFFFF" width="1.327" height="4.114"/>
			</g>
		</g>
		<g>
			<g>
				<rect x="247.029" y="84.615" fill="#FFFFFF" width="1.327" height="4.15"/>
				<rect x="248.826" y="84.615" fill="#FFFFFF" width="1.328" height="4.15"/>
			</g>
			<g>
				<rect x="247.029" y="80.093" fill="#FFFFFF" width="1.327" height="4.114"/>
				<rect x="248.826" y="80.093" fill="#FFFFFF" width="1.328" height="4.114"/>
			</g>
		</g>
		<g>
			<g>
				<rect x="254.568" y="84.615" fill="#FFFFFF" width="1.329" height="4.15"/>
				<rect x="256.366" y="84.615" fill="#FFFFFF" width="1.327" height="4.15"/>
			</g>
			<g>
				<rect x="254.568" y="80.093" fill="#FFFFFF" width="1.329" height="4.114"/>
				<rect x="256.366" y="80.093" fill="#FFFFFF" width="1.327" height="4.114"/>
			</g>
		</g>
		<g>
			<g>
				<rect x="262.11" y="84.615" fill="#FFFFFF" width="1.327" height="4.15"/>
				<rect x="263.907" y="84.615" fill="#FFFFFF" width="1.328" height="4.15"/>
			</g>
			<g>
				<rect x="262.11" y="80.093" fill="#FFFFFF" width="1.327" height="4.114"/>
				<rect x="263.907" y="80.093" fill="#FFFFFF" width="1.328" height="4.114"/>
			</g>
		</g>
		<g>
			<g>
				<rect x="239.488" y="116.921" fill="#FFFFFF" width="1.328" height="4.15"/>
				<rect x="241.286" y="116.921" fill="#FFFFFF" width="1.327" height="4.15"/>
			</g>
			<g>
				<rect x="239.488" y="112.399" fill="#FFFFFF" width="1.328" height="4.114"/>
				<rect x="241.286" y="112.399" fill="#FFFFFF" width="1.327" height="4.114"/>
			</g>
		</g>
		<g>
			<g>
				<rect x="247.029" y="116.921" fill="#FFFFFF" width="1.327" height="4.15"/>
				<rect x="248.826" y="116.921" fill="#FFFFFF" width="1.328" height="4.15"/>
			</g>
			<g>
				<rect x="247.029" y="112.399" fill="#FFFFFF" width="1.327" height="4.114"/>
				<rect x="248.826" y="112.399" fill="#FFFFFF" width="1.328" height="4.114"/>
			</g>
		</g>
		<g>
			<g>
				<rect x="254.568" y="116.921" fill="#FFFFFF" width="1.329" height="4.15"/>
				<rect x="256.366" y="116.921" fill="#FFFFFF" width="1.327" height="4.15"/>
			</g>
			<g>
				<rect x="254.568" y="112.399" fill="#FFFFFF" width="1.329" height="4.114"/>
				<rect x="256.366" y="112.399" fill="#FFFFFF" width="1.327" height="4.114"/>
			</g>
		</g>
		<g>
			<g>
				<rect x="262.11" y="116.921" fill="#FFFFFF" width="1.327" height="4.15"/>
				<rect x="263.907" y="116.921" fill="#FFFFFF" width="1.328" height="4.15"/>
			</g>
			<g>
				<rect x="262.11" y="112.399" fill="#FFFFFF" width="1.327" height="4.114"/>
				<rect x="263.907" y="112.399" fill="#FFFFFF" width="1.328" height="4.114"/>
			</g>
		</g>
		<g>
			<g>
				<rect x="239.488" y="133.106" fill="#FFFFFF" width="1.328" height="2.795"/>
				<rect x="241.286" y="133.106" fill="#FFFFFF" width="1.327" height="2.795"/>
			</g>
			<g>
				<rect x="239.488" y="128.584" fill="#FFFFFF" width="1.328" height="4.113"/>
				<rect x="241.286" y="128.584" fill="#FFFFFF" width="1.327" height="4.113"/>
			</g>
		</g>
		<g>
			<g>
				<rect x="247.029" y="133.106" fill="#FFFFFF" width="1.327" height="2.795"/>
				<rect x="248.826" y="133.106" fill="#FFFFFF" width="1.328" height="2.795"/>
			</g>
			<g>
				<rect x="247.029" y="128.584" fill="#FFFFFF" width="1.327" height="4.113"/>
				<rect x="248.826" y="128.584" fill="#FFFFFF" width="1.328" height="4.113"/>
			</g>
		</g>
		<g>
			<g>
				<rect x="254.568" y="133.106" fill="#FFFFFF" width="1.329" height="2.795"/>
				<rect x="256.366" y="133.106" fill="#FFFFFF" width="1.327" height="2.795"/>
			</g>
			<g>
				<rect x="254.568" y="128.584" fill="#FFFFFF" width="1.329" height="4.113"/>
				<rect x="256.366" y="128.584" fill="#FFFFFF" width="1.327" height="4.113"/>
			</g>
		</g>
		<g>
			<g>
				<rect x="262.11" y="133.106" fill="#FFFFFF" width="1.327" height="2.795"/>
				<rect x="263.907" y="133.106" fill="#FFFFFF" width="1.328" height="2.795"/>
			</g>
			<g>
				<rect x="262.11" y="128.584" fill="#FFFFFF" width="1.327" height="4.113"/>
				<rect x="263.907" y="128.584" fill="#FFFFFF" width="1.328" height="4.113"/>
			</g>
		</g>
	</g>
	<path opacity="0.5" fill="#FFFFFF" d="M242.153,64.93c-3.412-3.434-6.827-6.864-10.241-10.296h-13.765
		c3.965,3.957,7.931,7.912,11.896,11.871c7.762,7.753,15.521,15.509,23.279,23.264c5.246,5.242,10.497,10.479,15.75,15.717V91.999
		c-1.919-1.928-3.837-3.856-5.755-5.785C256.265,79.118,249.207,72.026,242.153,64.93z"/>
	<path opacity="0.5" fill="#FFFFFF" d="M224.744,93.207c-10.029-10.046-20.065-20.084-30.086-30.138
		c-2.739-2.747-5.481-5.493-8.221-8.239h-9.787v25.068c5.84,5.835,11.68,11.669,17.521,17.502
		c11.424,11.413,22.854,22.819,34.283,34.225c1.428,1.425,2.857,2.849,4.283,4.272h34.659c-4.097-4.099-8.194-8.198-12.29-12.297
		C244.981,113.474,234.862,103.342,224.744,93.207z"/>
</g>
<g>
	<path fill="#37474F" d="M271.072,137.897H174.65V52.634h96.422V137.897z M178.65,133.897h88.422V56.634H178.65V133.897z"/>
</g>
<path fill="#7F8080" d="M103.762,97.183c0.024,0.065,0.304,0.166,0.473,0.167c0.394,0.003,0.804-0.036,1.169-0.088
	c0.074-0.011,0.037-0.16-0.047-0.236c-0.11-0.103-0.315-0.286-0.48-0.286h-1.064C103.786,96.739,103.708,97.034,103.762,97.183z"/>
<g>
	<path fill="#37474F" d="M194.369,98.44H84.276c-0.938,0-1.699-0.762-1.699-1.701l0,0c0-0.938,0.761-1.7,1.699-1.7h110.093
		c0.939,0,1.7,0.762,1.7,1.7l0,0C196.07,97.679,195.309,98.44,194.369,98.44z"/>
</g>
<g>
	<g>
		<path fill="#818282" d="M142.257,92.168h-0.779c-0.184,0-0.33-0.147-0.33-0.33s0.146-0.331,0.33-0.331h0.779
			c0.183,0,0.33,0.148,0.33,0.331S142.439,92.168,142.257,92.168z"/>
	</g>
	<g>
		<path fill="#818282" d="M142.257,93.729h-0.779c-0.184,0-0.33-0.148-0.33-0.33c0-0.184,0.146-0.33,0.33-0.33h0.779
			c0.183,0,0.33,0.146,0.33,0.33C142.587,93.581,142.439,93.729,142.257,93.729z"/>
	</g>
</g>
<g>
	<g>
		<g>
			<rect x="131.753" y="54.634" fill="#2D632B" width="11.829" height="40.476"/>
		</g>
	</g>
	<g>
		<g>
			<path fill="#818282" d="M133.819,80.271V57.174c0-0.183,0.148-0.331,0.331-0.331h7.034c0.182,0,0.33,0.148,0.33,0.331v23.098
				c0,0.183-0.148,0.33-0.33,0.33h-7.034C133.968,80.602,133.819,80.454,133.819,80.271z M140.854,57.504h-6.374v22.438h6.374
				V57.504z"/>
		</g>
		<g>
			<path fill="#818282" d="M135.696,89.642c0-1.088,0.885-1.972,1.971-1.972c1.088,0,1.973,0.885,1.973,1.972
				s-0.885,1.972-1.973,1.972C136.58,91.613,135.696,90.729,135.696,89.642z"/>
		</g>
	</g>
	<g>
		<g>
			<rect x="119.933" y="54.634" fill="#C8D9F1" width="11.829" height="40.476"/>
		</g>
	</g>
	<g>
		<g>
			<path fill="#F4F3F4" d="M122.001,80.271V57.174c0-0.183,0.147-0.331,0.33-0.331h7.033c0.184,0,0.33,0.148,0.33,0.331v23.098
				c0,0.183-0.146,0.33-0.33,0.33h-7.033C122.148,80.602,122.001,80.454,122.001,80.271z M129.034,57.504h-6.373v22.438h6.373
				V57.504z"/>
		</g>
		<g>
			<path fill="#F4F3F4" d="M123.876,89.642c0-1.088,0.885-1.972,1.973-1.972c1.086,0,1.971,0.885,1.971,1.972
				s-0.885,1.972-1.971,1.972C124.761,91.613,123.876,90.729,123.876,89.642z"/>
		</g>
	</g>
	<g>
		<rect x="134.405" y="57.504" fill="#FFFFFF" width="6.524" height="22.438"/>
	</g>
	<g>
		<rect x="122.585" y="57.504" fill="#81A0D3" width="6.524" height="22.438"/>
	</g>
	<g id="book_32_">
		<rect x="113.741" y="61.794" fill="#5E867A" width="6.177" height="33.148"/>
		<g>
			<rect x="113.741" y="63.373" fill="#FFFFFF" width="6.177" height="1.579"/>
			<rect x="113.741" y="66.529" fill="#FFFFFF" width="6.177" height="1.579"/>
			<rect x="113.741" y="82.315" fill="#FFFFFF" width="6.177" height="7.892"/>
		</g>
		<rect x="113.741" y="61.794" opacity="0.1" fill="#010202" width="1.235" height="33.148"/>
	</g>
	<g id="book_31_">
		<rect x="108.688" y="54.82" fill="#CFCCC9" width="5.095" height="40.103"/>
		<g>
			<rect x="108.688" y="56.563" fill="#818282" width="5.095" height="5.23"/>
			<rect x="108.688" y="63.538" fill="#818282" width="5.095" height="1.744"/>
			<rect x="108.688" y="87.948" fill="#818282" width="5.095" height="5.23"/>
			<rect x="108.688" y="84.461" fill="#818282" width="5.095" height="1.744"/>
		</g>
		<rect x="108.688" y="54.82" opacity="0.1" fill="#010202" width="1.697" height="40.103"/>
	</g>
	<g id="book_30_">
		<rect x="102.091" y="54.807" fill="#373A83" width="6.639" height="40.13"/>
		<g>
			<rect x="102.091" y="58.017" fill="#81A0D3" width="6.639" height="1.285"/>
			<rect x="102.091" y="60.391" fill="#81A0D3" width="6.639" height="1.284"/>
			<rect x="102.091" y="87.846" fill="#81A0D3" width="6.639" height="1.286"/>
			<rect x="102.091" y="90.22" fill="#81A0D3" width="6.639" height="1.285"/>
		</g>
		<rect x="102.091" y="54.807" opacity="0.1" fill="#010202" width="1.161" height="40.13"/>
	</g>
	<g id="book_29_">
		<rect x="92.769" y="61.794" fill="#F29077" width="9.341" height="33.127"/>
		<g>
			<rect x="92.769" y="89.562" fill="#818282" width="9.341" height="0.974"/>
		</g>
		<g>
			<rect x="92.769" y="66.042" fill="#818282" width="9.341" height="0.975"/>
		</g>
		<rect x="92.769" y="61.794" opacity="0.1" fill="#010202" width="2.988" height="33.127"/>
	</g>
	<g id="book_27_">
		<rect x="86.685" y="54.8" fill="#426FB5" width="6.176" height="40.143"/>
		<rect x="86.685" y="56.344" fill="#FFFFFF" width="6.176" height="4.632"/>
		<rect x="86.685" y="61.712" fill="#FFFFFF" width="6.176" height="0.771"/>
		<rect x="86.685" y="63.152" fill="#FFFFFF" width="6.176" height="0.771"/>
		<rect x="86.685" y="90.312" fill="#FFFFFF" width="6.176" height="3.088"/>
		<rect x="86.685" y="54.8" opacity="0.1" fill="#010202" width="2.315" height="40.143"/>
	</g>
</g>
<rect x="85.585" y="151.876" fill="#F3F1F0" width="161.444" height="5.255"/>
<g>
	<g>
		<g id="computer_1_">
			<g id="computer">
				<g>
					<polygon fill="#CFCCC9" points="171.828,134.24 160.065,134.24 155.95,152.589 176.65,152.589 					"/>
					<path fill="#818282" d="M206.475,133.4V91.746c0-2.154-1.465-3.9-3.281-3.9h-74.464c-1.811,0-3.279,1.746-3.279,3.9V133.4
						c0,1.839,0.006,3.318,0.006,3.318l0.002,0.558h0.009c0.05,2.499,1.845,4.512,4.059,4.512h72.767
						c2.249,0,4.174-2.067,4.174-4.609h-0.005l0.005-0.439C206.466,136.734,206.475,135.216,206.475,133.4z"/>
					<linearGradient id="SVGID_7_" gradientUnits="userSpaceOnUse" x1="147.0537" y1="145.6152" x2="185.255" y2="79.4486">
						<stop  offset="0" style="stop-color:#426FB5"/>
						<stop  offset="1" style="stop-color:#373A83"/>
					</linearGradient>
					<path fill="url(#SVGID_7_)" d="M204.598,92.38c0-1.72-1.209-2.907-2.7-2.907h-71.866c-1.491,0-2.7,1.188-2.7,2.907v38.764
						c0,1.721,0.003,3.087,0.003,3.087l77.246,0.022c0,0,0.018-1.389,0.018-3.109V92.38z"/>
					<rect x="150.11" y="151.837" fill="#818282" width="31.86" height="1.948"/>
				</g>
			</g>
		</g>
		<g>
			<rect x="144.378" y="101.794" fill="#EBEBEA" width="43.169" height="22.207"/>
			<polygon fill="#F3F1F0" points="144.378,124.001 165.962,111.175 187.547,124.001 			"/>
			<polygon fill="#FFFFFF" points="144.378,101.794 165.962,115.77 187.547,101.794 			"/>
		</g>
	</g>
	<path fill="#37474F" d="M206.474,134.253H125.45c0.002,1.422,0.006,2.466,0.006,2.466l0.002,0.558h0.009
		c0.05,2.499,1.845,4.512,4.059,4.512h72.767c2.249,0,4.174-2.067,4.174-4.609h-0.005l0.005-0.439
		C206.466,136.735,206.473,135.667,206.474,134.253z"/>
</g>
<g>
	<rect x="210.555" y="132.697" fill="#5E867A" width="30.7" height="21.229"/>
	<radialGradient id="SVGID_8_" cx="225.9043" cy="143.3105" r="12.1198" gradientUnits="userSpaceOnUse">
		<stop  offset="0" style="stop-color:#FFFFFF"/>
		<stop  offset="1" style="stop-color:#F3F1F0"/>
	</radialGradient>
	<rect x="211.679" y="133.749" fill="url(#SVGID_8_)" width="28.45" height="19.124"/>
	<g>
		<rect x="214.527" y="142.423" opacity="0.6" fill="#818282" width="23.049" height="0.798"/>
		<rect x="214.527" y="144.164" opacity="0.6" fill="#818282" width="23.049" height="0.799"/>
		<rect x="214.527" y="145.906" opacity="0.6" fill="#818282" width="23.049" height="0.799"/>
		<rect x="214.527" y="147.648" opacity="0.6" fill="#818282" width="23.049" height="0.798"/>
		<rect x="214.527" y="149.39" opacity="0.6" fill="#818282" width="23.049" height="0.799"/>
	</g>
	<text transform="matrix(1 0 0 1 217.0352 140.0752)" fill="#373A83" font-family="'Roboto-Black'" font-size="4.042">DIPLOMA</text>
</g>
<g>
	<g>
		<g>
			<polygon fill="#CFCCC9" points="143.349,153.806 131.012,153.806 131.012,136.683 148.136,136.683 148.136,148.776 			"/>
			<polygon fill="#818282" points="148.136,148.776 143.349,148.776 143.349,153.806 			"/>
		</g>
	</g>
	<rect x="133.704" y="140.892" fill="#FFFFFF" width="11.327" height="0.393"/>
	<rect x="133.704" y="142.987" fill="#FFFFFF" width="11.327" height="0.393"/>
	<rect x="133.704" y="145.082" fill="#FFFFFF" width="11.327" height="0.393"/>
</g>
<rect x="85.585" y="157.131" fill="#37474F" width="161.413" height="3.36"/>
<g>
	<g>
		<linearGradient id="SVGID_9_" gradientUnits="userSpaceOnUse" x1="123.3428" y1="131.4707" x2="105.676" y2="148.8049">
			<stop  offset="0" style="stop-color:#FFD600"/>
			<stop  offset="1" style="stop-color:#F3C200"/>
		</linearGradient>
		<path fill="url(#SVGID_9_)" d="M95.675,149.396l2.414,0.01l10.283-29.745h6.941l10.214,29.745l2.413-0.01v4.062h-11.512v-4.062
			l2.344,0.012l-1.486-5.071H106.33l-1.485,5l2.344,0.06v4.062H95.675V149.396z M107.933,139.346h7.752l-3.807-11.908h-0.139
			L107.933,139.346z"/>
	</g>
</g>
<g>
	<g>
		<path fill="#00794E" d="M261.628,172.701c-3.727-1.499-3.369-0.137-6.958-0.137c-1.919,0-3.545-2.72-1.415-4.119
			c1.264-0.831,2.623-0.907,4.416-0.165C259.559,169.061,261.146,171.652,261.628,172.701"/>
		<g>
			<path fill="#1C4523" d="M262.814,174.908c-0.576-1.447-1.662-2.579-3.055-3.266c-1.384-0.681-2.981-0.875-4.503-0.717
				c-0.018,0.001-0.033,0.004-0.05,0.004c-0.212,0.025-0.296-0.301-0.081-0.324c1.531-0.175,3.106,0,4.524,0.621
				c1.396,0.613,2.559,1.664,3.242,3.033c0.079,0.158,0.149,0.321,0.216,0.486C263.187,174.944,262.895,175.109,262.814,174.908
				L262.814,174.908z"/>
		</g>
		<path fill="#00794E" d="M261.582,166.348c-4.308-1.734-3.896-0.161-8.043-0.161c-2.218,0-4.097-3.142-1.636-4.759
			c1.462-0.96,3.033-1.049,5.104-0.191C259.189,162.139,261.022,165.134,261.582,166.348"/>
		<g>
			<path fill="#1C4523" d="M262.814,168.513c-0.576-1.447-1.662-2.578-3.055-3.265c-1.384-0.682-2.981-0.875-4.503-0.718
				c-0.018,0.001-0.033,0.004-0.05,0.006c-0.212,0.024-0.296-0.301-0.081-0.326c1.531-0.174,3.106,0,4.524,0.621
				c1.396,0.613,2.559,1.665,3.242,3.033c0.079,0.158,0.149,0.322,0.216,0.487C263.187,168.549,262.895,168.714,262.814,168.513
				L262.814,168.513z"/>
		</g>
		<path fill="#00794E" d="M262.194,161.164c-3.514-3.034-3.633-1.412-7.557-2.756c-2.098-0.719-2.857-4.3-0.006-5.032
			c1.694-0.437,3.209-0.01,4.891,1.472C261.295,156.407,262.059,159.835,262.194,161.164"/>
		<path fill="#00794E" d="M262.774,155.205c-3.07-3.131-3.309-1.614-6.897-3.185c-1.918-0.84-2.354-4.27,0.388-4.736
			c1.628-0.277,3.021,0.241,4.488,1.767C262.298,150.657,262.75,153.943,262.774,155.205"/>
		<g>
			<path fill="#1C4523" d="M262.722,163.729c-0.123-1.553-0.826-2.954-1.955-4.021c-1.12-1.061-2.588-1.718-4.089-2.018
				c-0.017-0.004-0.032-0.005-0.05-0.009c-0.209-0.039-0.193-0.375,0.019-0.334c1.515,0.285,2.969,0.916,4.14,1.93
				c1.152,0.998,1.953,2.346,2.201,3.855c0.028,0.175,0.047,0.352,0.062,0.529C263.065,163.873,262.738,163.944,262.722,163.729
				L262.722,163.729z"/>
		</g>
		<g>
			<path fill="#1C4523" d="M262.782,156.125c-0.107-1.359-0.724-2.586-1.711-3.521c-0.98-0.927-2.267-1.503-3.58-1.765
				c-0.016-0.004-0.029-0.006-0.043-0.009c-0.184-0.034-0.17-0.328,0.016-0.293c1.326,0.25,2.6,0.804,3.624,1.69
				c1.009,0.874,1.71,2.054,1.927,3.375c0.025,0.153,0.042,0.309,0.055,0.463C263.083,156.252,262.798,156.313,262.782,156.125
				L262.782,156.125z"/>
		</g>
		<path fill="#00794E" d="M264.186,172.701c3.728-1.499,3.37-0.137,6.959-0.137c1.919,0,3.544-2.72,1.415-4.119
			c-1.265-0.831-2.625-0.907-4.416-0.165C266.256,169.061,264.669,171.652,264.186,172.701"/>
		<g>
			<path fill="#1C4523" d="M262.999,174.908c0.577-1.447,1.662-2.579,3.056-3.266c1.384-0.681,2.981-0.875,4.503-0.717
				c0.018,0.001,0.033,0.004,0.05,0.004c0.212,0.025,0.295-0.301,0.081-0.324c-1.531-0.175-3.107,0-4.525,0.621
				c-1.395,0.613-2.559,1.664-3.242,3.033c-0.078,0.158-0.148,0.321-0.215,0.486C262.628,174.944,262.919,175.109,262.999,174.908
				L262.999,174.908z"/>
		</g>
		<path fill="#00794E" d="M264.232,166.348c4.308-1.734,3.896-0.161,8.042-0.161c2.217,0,4.098-3.142,1.637-4.759
			c-1.462-0.96-3.033-1.049-5.104-0.191C266.625,162.139,264.792,165.134,264.232,166.348"/>
		<g>
			<path fill="#1C4523" d="M262.999,168.513c0.577-1.447,1.662-2.578,3.056-3.265c1.384-0.682,2.981-0.875,4.503-0.718
				c0.018,0.001,0.033,0.004,0.05,0.006c0.212,0.024,0.295-0.301,0.081-0.326c-1.531-0.174-3.107,0-4.525,0.621
				c-1.395,0.613-2.559,1.665-3.242,3.033c-0.078,0.158-0.148,0.322-0.215,0.487C262.628,168.549,262.919,168.714,262.999,168.513
				L262.999,168.513z"/>
		</g>
		<path fill="#00794E" d="M263.619,161.164c3.515-3.034,3.633-1.412,7.558-2.756c2.098-0.719,2.857-4.3,0.006-5.032
			c-1.694-0.437-3.209-0.01-4.892,1.472C264.521,156.407,263.755,159.835,263.619,161.164"/>
		<path fill="#00794E" d="M263.04,155.205c3.07-3.131,3.309-1.614,6.896-3.185c1.918-0.84,2.354-4.27-0.387-4.736
			c-1.628-0.277-3.021,0.241-4.488,1.767C263.517,150.657,263.064,153.943,263.04,155.205"/>
		<path fill="#00794E" d="M264.067,142.806c-0.357-0.273-0.713-0.4-1.052-0.423c-0.042-0.004-0.087-0.002-0.13-0.003
			c-0.045,0.001-0.088-0.001-0.131,0.003c-0.34,0.022-0.695,0.149-1.053,0.423c-1.05,0.806-1.504,1.907-1.407,3.6
			c0.102,1.784,1.786,3.84,2.513,4.542h0.154c0.728-0.702,2.412-2.758,2.514-4.542C265.571,144.713,265.117,143.611,264.067,142.806
			z"/>
		<g>
			<path fill="#1C4523" d="M263.093,163.729c0.123-1.553,0.826-2.954,1.955-4.021c1.12-1.061,2.588-1.718,4.088-2.018
				c0.018-0.004,0.033-0.005,0.05-0.009c0.21-0.039,0.193-0.375-0.019-0.334c-1.514,0.285-2.969,0.916-4.139,1.93
				c-1.152,0.998-1.953,2.346-2.201,3.855c-0.028,0.175-0.047,0.352-0.062,0.529C262.749,163.873,263.075,163.944,263.093,163.729
				L263.093,163.729z"/>
		</g>
		<g>
			<path fill="#1C4523" d="M263.032,156.125c0.107-1.359,0.723-2.586,1.71-3.521c0.981-0.927,2.267-1.503,3.581-1.765
				c0.015-0.004,0.029-0.006,0.043-0.009c0.184-0.034,0.17-0.328-0.016-0.293c-1.326,0.25-2.6,0.804-3.625,1.69
				c-1.008,0.874-1.709,2.054-1.926,3.375c-0.025,0.153-0.043,0.309-0.055,0.463C262.73,156.252,263.017,156.313,263.032,156.125
				L263.032,156.125z"/>
		</g>
		<g>
			<path fill="#1C4523" d="M262.927,149.802c0.121,4.777,0.217,9.555,0.291,14.332c0.045,2.389,0.139,4.777,0.084,7.166
				c-0.076,2.389-0.137,4.776-0.375,7.166h-0.084c-0.238-2.39-0.299-4.777-0.375-7.166c-0.055-2.389,0.039-4.777,0.084-7.166
				c0.074-4.777,0.172-9.555,0.291-14.332H262.927z"/>
		</g>
	</g>
	<g>
		<g>
			<linearGradient id="SVGID_10_" gradientUnits="userSpaceOnUse" x1="262.874" y1="174.7432" x2="262.874" y2="188.1136">
				<stop  offset="0" style="stop-color:#426FB5"/>
				<stop  offset="1" style="stop-color:#373A83"/>
			</linearGradient>
			<polygon fill="url(#SVGID_10_)" points="268.543,189.031 257.205,189.031 254.065,174.8 271.683,174.8 			"/>
		</g>
	</g>
</g>
<g>
	<g>
		<path fill="#00794E" d="M69.639,172.701c-3.727-1.499-3.369-0.137-6.958-0.137c-1.919,0-3.545-2.72-1.415-4.119
			c1.264-0.831,2.623-0.907,4.416-0.165C67.569,169.061,69.156,171.652,69.639,172.701"/>
		<g>
			<path fill="#1C4523" d="M70.825,174.908c-0.576-1.447-1.662-2.579-3.055-3.266c-1.384-0.681-2.981-0.875-4.503-0.717
				c-0.018,0.001-0.033,0.004-0.05,0.004c-0.212,0.025-0.296-0.301-0.081-0.324c1.531-0.175,3.106,0,4.524,0.621
				c1.396,0.613,2.559,1.664,3.242,3.033c0.079,0.158,0.149,0.321,0.216,0.486C71.197,174.944,70.905,175.109,70.825,174.908
				L70.825,174.908z"/>
		</g>
		<path fill="#00794E" d="M69.593,166.348c-4.308-1.734-3.896-0.161-8.043-0.161c-2.218,0-4.097-3.142-1.636-4.759
			c1.462-0.96,3.033-1.049,5.104-0.191C67.2,162.139,69.033,165.134,69.593,166.348"/>
		<g>
			<path fill="#1C4523" d="M70.825,168.513c-0.576-1.447-1.662-2.578-3.055-3.265c-1.384-0.682-2.981-0.875-4.503-0.718
				c-0.018,0.001-0.033,0.004-0.05,0.006c-0.212,0.024-0.296-0.301-0.081-0.326c1.531-0.174,3.106,0,4.524,0.621
				c1.396,0.613,2.559,1.665,3.242,3.033c0.079,0.158,0.149,0.322,0.216,0.487C71.197,168.549,70.905,168.714,70.825,168.513
				L70.825,168.513z"/>
		</g>
		<path fill="#00794E" d="M70.205,161.164c-3.514-3.034-3.633-1.412-7.557-2.756c-2.098-0.719-2.857-4.3-0.006-5.032
			c1.694-0.437,3.209-0.01,4.891,1.472C69.306,156.407,70.069,159.835,70.205,161.164"/>
		<path fill="#00794E" d="M70.785,155.205c-3.07-3.131-3.309-1.614-6.897-3.185c-1.918-0.84-2.354-4.27,0.388-4.736
			c1.628-0.277,3.021,0.241,4.488,1.767C70.309,150.657,70.761,153.943,70.785,155.205"/>
		<g>
			<path fill="#1C4523" d="M70.732,163.729c-0.123-1.553-0.826-2.954-1.955-4.021c-1.12-1.061-2.588-1.718-4.089-2.018
				c-0.017-0.004-0.032-0.005-0.05-0.009c-0.209-0.039-0.193-0.375,0.019-0.334c1.515,0.285,2.969,0.916,4.14,1.93
				c1.152,0.998,1.953,2.346,2.201,3.855c0.028,0.175,0.047,0.352,0.062,0.529C71.076,163.873,70.749,163.944,70.732,163.729
				L70.732,163.729z"/>
		</g>
		<g>
			<path fill="#1C4523" d="M70.793,156.125c-0.107-1.359-0.724-2.586-1.711-3.521c-0.98-0.927-2.267-1.503-3.58-1.765
				c-0.016-0.004-0.029-0.006-0.043-0.009c-0.184-0.034-0.17-0.328,0.016-0.293c1.326,0.25,2.6,0.804,3.624,1.69
				c1.009,0.874,1.71,2.054,1.927,3.375c0.025,0.153,0.042,0.309,0.055,0.463C71.094,156.252,70.809,156.313,70.793,156.125
				L70.793,156.125z"/>
		</g>
		<path fill="#00794E" d="M72.196,172.701c3.728-1.499,3.37-0.137,6.959-0.137c1.919,0,3.544-2.72,1.415-4.119
			c-1.265-0.831-2.625-0.907-4.416-0.165C74.267,169.061,72.68,171.652,72.196,172.701"/>
		<g>
			<path fill="#1C4523" d="M71.01,174.908c0.577-1.447,1.662-2.579,3.056-3.266c1.384-0.681,2.981-0.875,4.503-0.717
				c0.018,0.001,0.033,0.004,0.05,0.004c0.212,0.025,0.295-0.301,0.081-0.324c-1.531-0.175-3.107,0-4.525,0.621
				c-1.395,0.613-2.559,1.664-3.242,3.033c-0.078,0.158-0.148,0.321-0.215,0.486C70.639,174.944,70.93,175.109,71.01,174.908
				L71.01,174.908z"/>
		</g>
		<path fill="#00794E" d="M72.243,166.348c4.308-1.734,3.896-0.161,8.042-0.161c2.217,0,4.098-3.142,1.637-4.759
			c-1.462-0.96-3.033-1.049-5.104-0.191C74.636,162.139,72.803,165.134,72.243,166.348"/>
		<g>
			<path fill="#1C4523" d="M71.01,168.513c0.577-1.447,1.662-2.578,3.056-3.265c1.384-0.682,2.981-0.875,4.503-0.718
				c0.018,0.001,0.033,0.004,0.05,0.006c0.212,0.024,0.295-0.301,0.081-0.326c-1.531-0.174-3.107,0-4.525,0.621
				c-1.395,0.613-2.559,1.665-3.242,3.033c-0.078,0.158-0.148,0.322-0.215,0.487C70.639,168.549,70.93,168.714,71.01,168.513
				L71.01,168.513z"/>
		</g>
		<path fill="#00794E" d="M71.63,161.164c3.515-3.034,3.633-1.412,7.558-2.756c2.098-0.719,2.857-4.3,0.006-5.032
			c-1.694-0.437-3.209-0.01-4.892,1.472C72.531,156.407,71.766,159.835,71.63,161.164"/>
		<path fill="#00794E" d="M71.051,155.205c3.07-3.131,3.309-1.614,6.896-3.185c1.918-0.84,2.354-4.27-0.387-4.736
			c-1.628-0.277-3.021,0.241-4.488,1.767C71.527,150.657,71.075,153.943,71.051,155.205"/>
		<path fill="#00794E" d="M72.078,142.806c-0.357-0.273-0.713-0.4-1.052-0.423c-0.042-0.004-0.087-0.002-0.13-0.003
			c-0.045,0.001-0.088-0.001-0.131,0.003c-0.34,0.022-0.695,0.149-1.053,0.423c-1.05,0.806-1.504,1.907-1.407,3.6
			c0.102,1.784,1.786,3.84,2.513,4.542h0.154c0.728-0.702,2.412-2.758,2.514-4.542C73.582,144.713,73.128,143.611,72.078,142.806z"
			/>
		<g>
			<path fill="#1C4523" d="M71.104,163.729c0.123-1.553,0.826-2.954,1.955-4.021c1.12-1.061,2.588-1.718,4.088-2.018
				c0.018-0.004,0.033-0.005,0.05-0.009c0.21-0.039,0.193-0.375-0.019-0.334c-1.514,0.285-2.969,0.916-4.139,1.93
				c-1.152,0.998-1.953,2.346-2.201,3.855c-0.028,0.175-0.047,0.352-0.062,0.529C70.76,163.873,71.086,163.944,71.104,163.729
				L71.104,163.729z"/>
		</g>
		<g>
			<path fill="#1C4523" d="M71.043,156.125c0.107-1.359,0.723-2.586,1.71-3.521c0.981-0.927,2.267-1.503,3.581-1.765
				c0.015-0.004,0.029-0.006,0.043-0.009c0.184-0.034,0.17-0.328-0.016-0.293c-1.326,0.25-2.6,0.804-3.625,1.69
				c-1.008,0.874-1.709,2.054-1.926,3.375c-0.025,0.153-0.043,0.309-0.055,0.463C70.741,156.252,71.027,156.313,71.043,156.125
				L71.043,156.125z"/>
		</g>
		<g>
			<path fill="#1C4523" d="M70.938,149.802c0.121,4.777,0.217,9.555,0.291,14.332c0.045,2.389,0.139,4.777,0.084,7.166
				c-0.076,2.389-0.137,4.776-0.375,7.166h-0.084c-0.238-2.39-0.299-4.777-0.375-7.166c-0.055-2.389,0.039-4.777,0.084-7.166
				c0.074-4.777,0.172-9.555,0.291-14.332H70.938z"/>
		</g>
	</g>
	<g>
		<g>
			<linearGradient id="SVGID_11_" gradientUnits="userSpaceOnUse" x1="70.8848" y1="174.7432" x2="70.8848" y2="188.1136">
				<stop  offset="0" style="stop-color:#426FB5"/>
				<stop  offset="1" style="stop-color:#373A83"/>
			</linearGradient>
			<polygon fill="url(#SVGID_11_)" points="76.554,189.031 65.216,189.031 62.076,174.8 79.693,174.8 			"/>
		</g>
	</g>
</g>
<g>
	<path fill="#81A0D3" d="M205.509,146.263c0-3.1-1.729-5.614-3.862-5.614c-0.232,0-0.46,0.035-0.682,0.093v-1.744
		c0-0.45-0.365-0.815-0.815-0.815h-11.48c-0.45,0-0.816,0.365-0.816,0.815v14.272c0,0.45,0.366,0.815,0.816,0.815h11.48
		c0.45,0,0.815-0.365,0.815-0.815v-1.484c0.222,0.058,0.449,0.092,0.682,0.092C203.78,151.877,205.509,149.364,205.509,146.263z
		 M204.259,146.263c0,2.099-1.17,3.798-2.612,3.798c-0.235,0-0.464-0.051-0.682-0.136v-7.324c0.218-0.085,0.446-0.136,0.682-0.136
		C203.089,142.465,204.259,144.166,204.259,146.263z"/>
	<path fill="#F3F1F0" d="M200.965,140.741v-1.744c0-0.45-0.365-0.815-0.815-0.815h-11.48c-0.45,0-0.816,0.365-0.816,0.815v1.744
		H200.965z"/>
</g>
<defs>
	<filter id="Adobe_OpacityMaskFilter_2_" filterUnits="userSpaceOnUse" x="127.332" y="89.473" width="74.565" height="44.758">
		<feFlood  style="flood-color:white;flood-opacity:1" result="back"/>
		<feBlend  in="SourceGraphic" in2="back" mode="normal"/>
	</filter>
</defs>
<mask maskUnits="userSpaceOnUse" x="127.332" y="89.473" width="74.565" height="44.758" id="SVGID_12_">
	<g filter="url(#Adobe_OpacityMaskFilter_2_)">
		<defs>
			<filter id="Adobe_OpacityMaskFilter_3_" filterUnits="userSpaceOnUse" x="127.332" y="89.473" width="74.565" height="44.758">
				<feFlood  style="flood-color:white;flood-opacity:1" result="back"/>
				<feBlend  in="SourceGraphic" in2="back" mode="normal"/>
			</filter>
		</defs>
		<mask maskUnits="userSpaceOnUse" x="127.332" y="89.473" width="74.565" height="44.758" id="SVGID_12_">
			<g filter="url(#Adobe_OpacityMaskFilter_3_)">
			</g>
		</mask>
		<linearGradient id="SVGID_13_" gradientUnits="userSpaceOnUse" x1="136.3535" y1="139.4375" x2="174.3749" y2="73.5826">
			<stop  offset="0.0013" style="stop-color:#B3B3B3"/>
			<stop  offset="1" style="stop-color:#333333"/>
		</linearGradient>
		<path mask="url(#SVGID_12_)" fill="url(#SVGID_13_)" d="M132.474,89.473h-1.693h-0.749c-1.489,0-2.698,1.187-2.699,2.906
			l0.002,41.852l74.563-44.758H132.474z"/>
	</g>
</mask>
<linearGradient id="SVGID_14_" gradientUnits="userSpaceOnUse" x1="136.3535" y1="139.4375" x2="174.3749" y2="73.5826">
	<stop  offset="0.0013" style="stop-color:#FFFFFF"/>
	<stop  offset="1" style="stop-color:#F6F8F9"/>
</linearGradient>
<path opacity="0.4" fill="url(#SVGID_14_)" d="M132.474,89.473h-1.693h-0.749c-1.489,0-2.698,1.187-2.699,2.906l0.002,41.852
	l74.563-44.758H132.474z"/>
<rect x="128.237" y="170.246" fill="#5DA98E" width="15.666" height="5.975"/>
<rect x="199.733" y="163.177" fill="#5DA98E" width="15.667" height="5.976"/>
<rect x="139.545" y="163.178" fill="#5DA98E" width="15.667" height="5.974"/>
<rect x="74.354" y="114.941" fill="#5DA98E" width="15.667" height="5.975"/>
<rect x="85.663" y="107.873" fill="#5DA98E" width="15.666" height="5.974"/>
<rect x="56.806" y="114.941" fill="#5DA98E" width="15.666" height="5.975"/>
<rect x="59.942" y="67.588" fill="#5DA98E" width="15.666" height="5.975"/>
<rect x="147.378" y="59.11" fill="#5DA98E" width="15.668" height="5.975"/>
<rect x="153.403" y="66.255" fill="#5DA98E" width="15.668" height="5.975"/>
<rect x="202.302" y="42.005" fill="#5DA98E" width="15.667" height="5.975"/>
<rect x="68.113" y="107.873" fill="#5DA98E" width="15.667" height="5.974"/>
<rect x="169.071" y="170.246" fill="#5DA98E" width="15.666" height="5.974"/>
<g>
	<path fill="#CFCCC9" d="M235.021,165.612h-6.866h-6.866c-1.338,0-2.386,1.105-2.386,2.502v4.598c0,1.396,1.048,2.443,2.386,2.443
		h1.105h2.27h10.357c1.339,0,2.386-1.105,2.386-2.443v-4.598C237.406,166.718,236.301,165.612,235.021,165.612z"/>
	
		<line fill="none" stroke="#DCDEE8" stroke-width="1.5861" stroke-linecap="round" stroke-linejoin="round" stroke-miterlimit="10" x1="231.51" y1="170.384" x2="231.567" y2="170.384"/>
	<g>
		<circle fill="#FFFFFF" cx="232.479" cy="170.384" r="2.677"/>
		<circle fill="#FFFFFF" cx="223.83" cy="170.384" r="2.677"/>
	</g>
	<g>
		<path fill="#818282" d="M233.487,170.966c-0.154,0-0.302-0.06-0.413-0.173c-0.111-0.111-0.172-0.258-0.172-0.413
			c0-0.146,0.068-0.302,0.172-0.404c0.216-0.225,0.612-0.225,0.827,0c0.104,0.103,0.173,0.259,0.173,0.404
			c0,0.155-0.062,0.302-0.173,0.413C233.789,170.906,233.644,170.966,233.487,170.966z"/>
	</g>
	<g>
		<path fill="#818282" d="M231.51,170.966c-0.155,0-0.302-0.06-0.414-0.173c-0.111-0.111-0.172-0.258-0.172-0.413
			c0-0.146,0.069-0.302,0.172-0.404c0.216-0.225,0.612-0.225,0.827,0c0.104,0.103,0.173,0.259,0.173,0.404
			c0,0.155-0.062,0.302-0.173,0.413C231.811,170.906,231.665,170.966,231.51,170.966z"/>
	</g>
	<rect x="227.823" y="165.612" fill="#818282" width="0.506" height="9.543"/>
</g>
</svg>
